<svg width="126" height="29" viewBox="0 0 126 29" fill="none" xmlns="http://www.w3.org/2000/svg">
<path d="M2.31201 25.983L5.40309 22.6657L7.66987 23.9416L10.1427 22.6657H10.967V23.9416L12.2034 21.645L13.4399 23.9416L15.2945 25.983L17.3552 23.9416H19.0038L21.4767 21.645L24.7738 23.9416L27.0406 22.6657L28.4831 25.983L33.4288 23.4312L35.0774 23.9416L36.3138 26.2382L38.9928 23.9416L43.9385 23.4312L44.7628 19.0932L45.9992 22.4105L50.3267 19.0932L51.9753 16.2863L56.7149 12.4587L58.1574 10.4172L61.4546 9.14136C61.9354 10.6724 63.0619 13.5814 63.7213 12.969C64.3808 12.3566 66.469 10.1621 67.4306 9.14136L69.4913 11.9483L74.4371 15.5208L76.2917 14.5001L79.1767 17.8173L87.2135 21.645L89.8924 17.8173L91.1289 19.6036L96.4867 17.8173L102.875 21.645L104.524 17.8173L106.79 19.6036L110.5 10.6724L113.179 13.4794L123.688 2.76196" stroke="#C686F9" stroke-width="2" stroke-linecap="round"/>
</svg>
