<svg width="47" height="47" viewBox="0 0 47 47" fill="none" xmlns="http://www.w3.org/2000/svg">
<rect width="47" height="47" rx="23.5" fill="#39B8FF"/>
<g clip-path="url(#clip0_227_531)">
<path d="M23.1763 37.5539C23.1815 37.4348 23.2094 37.3179 23.2584 37.21C23.3074 37.1021 23.3766 37.0054 23.4618 36.9255C23.5471 36.8456 23.6467 36.784 23.7551 36.7444C23.8634 36.7048 23.9782 36.6879 24.0929 36.6947C24.2075 36.7015 24.3197 36.7318 24.423 36.784C24.5263 36.8362 24.6186 36.9091 24.6945 36.9986C24.7705 37.088 24.8286 37.1923 24.8654 37.3052C24.9023 37.4182 24.9173 37.5376 24.9094 37.6566C24.8937 37.8934 24.7888 38.1141 24.6174 38.271C24.4461 38.428 24.222 38.5084 23.994 38.4949C23.7659 38.4813 23.5521 38.375 23.399 38.1988C23.2459 38.0227 23.1659 37.791 23.1763 37.5539ZM16.0673 36.5785C16.1666 36.4214 16.3219 36.3116 16.4991 36.2735C16.6763 36.2353 16.8609 36.2718 17.0122 36.375C17.1635 36.4781 17.2691 36.6395 17.3058 36.8235C17.3426 37.0076 17.3074 37.1992 17.2081 37.3564C17.1589 37.4342 17.0955 37.5011 17.0214 37.5535C16.9473 37.6058 16.864 37.6425 16.7762 37.6614C16.6885 37.6803 16.598 37.681 16.51 37.6636C16.4219 37.6462 16.3381 37.6109 16.2632 37.5598C16.1883 37.5087 16.1238 37.4428 16.0734 37.3659C16.023 37.2889 15.9877 37.2024 15.9695 37.1112C15.9513 37.0201 15.9506 36.9261 15.9674 36.8347C15.9841 36.7433 16.0181 36.6563 16.0673 36.5785ZM31.3151 36.3006C31.3951 36.2586 31.4822 36.2333 31.5716 36.2263C31.661 36.2194 31.7508 36.2308 31.8359 36.2599C31.9211 36.289 31.9998 36.3353 32.0677 36.3961C32.1356 36.4569 32.1912 36.531 32.2315 36.6142C32.2923 36.7394 32.316 36.8804 32.2996 37.0196C32.2832 37.1587 32.2274 37.2897 32.1393 37.3959C32.0513 37.5021 31.9348 37.5788 31.8048 37.6163C31.6747 37.6538 31.5369 37.6504 31.4087 37.6066C31.2805 37.5627 31.1677 37.4803 31.0846 37.3699C31.0015 37.2594 30.9518 37.1259 30.9418 36.9861C30.9318 36.8463 30.9619 36.7065 31.0283 36.5845C31.0948 36.4625 31.1946 36.3637 31.3151 36.3006ZM17.7152 32.8276C17.8682 32.5849 18.1078 32.4152 18.3813 32.3559C18.6547 32.2966 18.9397 32.3525 19.1734 32.5113C19.4072 32.6705 19.5705 32.9196 19.6276 33.2038C19.6846 33.488 19.6307 33.7841 19.4777 34.027C19.3237 34.2678 19.0843 34.4355 18.8117 34.4936C18.5391 34.5517 18.2554 34.4953 18.0226 34.3369C17.7899 34.1785 17.6269 33.9309 17.5693 33.6481C17.5117 33.3653 17.5641 33.0703 17.7152 32.8276ZM29.1745 32.4239C29.2978 32.3586 29.4322 32.3192 29.5702 32.3079C29.7081 32.2966 29.8469 32.3137 29.9784 32.3582C30.11 32.4027 30.2318 32.4737 30.337 32.5671C30.4421 32.6605 30.5285 32.7746 30.5911 32.9027C30.6854 33.0945 30.7231 33.3108 30.6996 33.5247C30.6762 33.7386 30.5925 33.9406 30.4592 34.1054C30.3259 34.2702 30.1487 34.3906 29.9499 34.4514C29.7511 34.5123 29.5394 34.511 29.3413 34.4476C29.1432 34.3843 28.9675 34.2617 28.8361 34.0952C28.7047 33.9287 28.6234 33.7257 28.6024 33.5115C28.5815 33.2974 28.6217 33.0815 28.7182 32.891C28.8146 32.7004 28.963 32.5436 29.1448 32.4401L29.1745 32.4239ZM22.9105 31.7554C23.0179 31.5261 23.1884 31.335 23.4004 31.2063C23.6124 31.0777 23.8564 31.0173 24.1015 31.0327C24.7834 31.0751 25.3037 31.683 25.2645 32.3916C25.2541 32.5819 25.2031 32.7675 25.1153 32.9349C25.0275 33.1024 24.905 33.2475 24.7566 33.3597C24.6083 33.472 24.4378 33.5487 24.2575 33.5843C24.0771 33.6199 23.8914 33.6134 23.7138 33.5654C23.5361 33.5174 23.3709 33.429 23.2301 33.3067C23.0893 33.1843 22.9765 33.0311 22.8996 32.8579C22.8228 32.6848 22.7839 32.496 22.7858 32.3054C22.7877 32.1147 22.8303 31.9269 22.9105 31.7554ZM11.9402 29.7613C12.1452 29.6553 12.3821 29.6378 12.5995 29.7124C12.8169 29.7871 12.9971 29.9479 13.1008 30.1599C13.2045 30.3719 13.2234 30.6179 13.1534 30.8443C13.0833 31.0706 12.93 31.2591 12.7267 31.3686C12.5235 31.4782 12.2869 31.4998 12.0683 31.429C11.8498 31.3581 11.667 31.2005 11.5599 30.9903C11.4527 30.7802 11.4298 30.5346 11.4962 30.307C11.5626 30.0794 11.7128 29.8883 11.9143 29.7752L11.9402 29.7613ZM35.1763 30.0177C35.2382 29.9174 35.3187 29.8308 35.413 29.763C35.5073 29.6952 35.6137 29.6474 35.7259 29.6226C35.8381 29.5977 35.9539 29.5962 36.0666 29.6181C36.1794 29.64 36.2869 29.6849 36.3828 29.7502C36.4788 29.8155 36.5613 29.8999 36.6257 29.9986C36.69 30.0972 36.7349 30.2081 36.7577 30.3249C36.7806 30.4417 36.7809 30.562 36.7587 30.6789C36.7364 30.7958 36.6921 30.9069 36.6283 31.0059C36.501 31.2033 36.3039 31.3405 36.0798 31.3878C35.8556 31.4351 35.6226 31.3885 35.4313 31.2583C35.24 31.1281 35.1059 30.9248 35.0581 30.6925C35.0104 30.4601 35.0529 30.2176 35.1763 30.0177ZM20.6225 26.0194C21.0355 25.7878 21.5112 25.7059 21.9741 25.7866C22.4371 25.8674 22.8608 26.1063 23.1784 26.4654C23.4959 26.8245 23.689 27.2833 23.7271 27.7693C23.7653 28.2552 23.6463 28.7405 23.389 29.1483C23.1976 29.4533 22.9357 29.7038 22.6273 29.8767C22.3188 30.0496 21.9735 30.1396 21.6229 30.1383C21.1535 30.1379 20.6977 29.9749 20.3275 29.6752C19.9574 29.3754 19.694 28.956 19.5792 28.4833C19.4644 28.0106 19.5046 27.5116 19.6936 27.0653C19.8826 26.6191 20.2094 26.251 20.6225 26.0194ZM25.9518 25.8546C26.4304 25.6946 26.9483 25.7174 27.4122 25.9189C27.876 26.1204 28.2553 26.4873 28.4818 26.9536C29.0024 28.0329 28.5851 29.3465 27.5479 29.8917C27.2534 30.0468 26.9283 30.1288 26.5981 30.1312C26.0953 30.1312 25.6091 29.9446 25.227 29.6052C24.845 29.2658 24.5922 28.7958 24.5142 28.2799C24.4363 27.7641 24.5383 27.2362 24.8018 26.7916C25.0654 26.3469 25.4733 26.0146 25.9518 25.8546ZM15.7938 27.0712C15.9135 26.9268 16.0625 26.8117 16.2301 26.7343C16.3977 26.6569 16.5798 26.6191 16.7632 26.6236C16.9466 26.6281 17.1267 26.6748 17.2907 26.7603C17.4546 26.8458 17.5982 26.968 17.7112 27.1181C17.8242 27.2682 17.9037 27.4425 17.944 27.6283C17.9843 27.8142 17.9845 28.007 17.9444 28.193C17.9043 28.3789 17.825 28.5533 17.7123 28.7035C17.5995 28.8538 17.456 28.9762 17.2922 29.062C17.036 29.1961 16.743 29.2338 16.463 29.1687C16.1831 29.1036 15.9335 28.9397 15.7568 28.7049C15.5801 28.4702 15.4872 28.1791 15.494 27.8812C15.5007 27.5833 15.6067 27.2971 15.7938 27.0712ZM30.4506 27.1704C30.8265 26.5756 31.5955 26.4099 32.1681 26.8004C32.7397 27.1917 32.8988 27.9893 32.5242 28.5844C32.1484 29.179 31.3794 29.3447 30.8068 28.9543C30.2341 28.5638 30.0746 27.7652 30.4506 27.1704ZM17.0156 23.3596C17.0814 22.1681 18.0533 21.2506 19.2016 21.2959C20.3497 21.3411 21.2517 22.3324 21.2307 23.5256C21.2099 24.7053 20.2938 25.6534 19.1625 25.6758L19.1239 25.6762H19.0086C17.8567 25.6062 16.974 24.5908 17.0195 23.3981L17.0213 23.3583L17.0156 23.3596ZM26.9676 23.3349C27.0344 22.1266 28.0318 21.2033 29.1952 21.2727C29.4716 21.2874 29.7423 21.3592 29.9917 21.4837C30.2411 21.6083 30.4641 21.7832 30.6477 21.9982C30.9164 22.3107 31.0932 22.6966 31.1572 23.1103C31.2212 23.5239 31.1697 23.948 31.0087 24.3321C30.8477 24.7163 30.5841 25.0445 30.249 25.2777C29.9139 25.511 29.5215 25.6396 29.1182 25.6483L29.0753 25.6488H28.953C27.7896 25.5794 26.9006 24.5435 26.9675 23.3352L26.9676 23.3349ZM11.9965 23.4346C12.0124 23.1449 12.1383 22.8736 12.3467 22.6803C12.5552 22.4871 12.8289 22.3878 13.1079 22.4041C13.3869 22.4208 13.6482 22.5519 13.8342 22.7685C14.0203 22.9851 14.116 23.2696 14.1002 23.5594C14.0843 23.8492 13.9582 24.1205 13.7497 24.3137C13.5411 24.5068 13.2673 24.6061 12.9883 24.5895C12.7093 24.573 12.4481 24.442 12.2621 24.2254C12.0761 24.0088 11.9806 23.7243 11.9965 23.4346ZM34.1035 23.385C34.1208 23.0964 34.2474 22.8266 34.4557 22.6346C34.6639 22.4427 34.9369 22.3441 35.2149 22.3605C35.4928 22.377 35.7533 22.507 35.9392 22.7222C36.1252 22.9375 36.2215 23.2204 36.2073 23.5092C36.1912 23.7991 36.0651 24.0704 35.8565 24.2637C35.6479 24.457 35.374 24.5564 35.0949 24.5401C34.816 24.5234 34.5549 24.3924 34.369 24.1758C34.1831 23.9592 34.0876 23.6747 34.1035 23.385ZM9.12963 22.8019L9.15509 22.8029C9.24455 22.808 9.33217 22.8313 9.41292 22.8716C9.49367 22.912 9.56595 22.9685 9.62562 23.0379C9.68528 23.1073 9.73115 23.1883 9.76059 23.2762C9.79003 23.3641 9.80247 23.4571 9.79718 23.55C9.7895 23.6886 9.74276 23.8217 9.66279 23.9329C9.58282 24.044 9.47315 24.1283 9.34741 24.1752C9.22167 24.2222 9.08543 24.2296 8.95563 24.1968C8.82582 24.1639 8.70819 24.0921 8.61738 23.9903C8.52656 23.8885 8.46656 23.7613 8.44485 23.6243C8.42313 23.4874 8.44067 23.3469 8.49526 23.2202C8.54985 23.0936 8.6391 22.9864 8.75189 22.912C8.86468 22.8376 8.99604 22.7993 9.12963 22.8019ZM39.0975 22.7288L39.1259 22.7299C39.3065 22.7411 39.4754 22.826 39.5958 22.9663C39.7161 23.1065 39.7781 23.2906 39.768 23.4782C39.7603 23.6169 39.7135 23.7501 39.6335 23.8614C39.5535 23.9728 39.4438 24.0572 39.3179 24.1042C39.1921 24.1513 39.0557 24.1589 38.9257 24.1261C38.7958 24.0933 38.678 24.0216 38.5869 23.9199C38.4959 23.8181 38.4356 23.6908 38.4137 23.5538C38.3917 23.4168 38.409 23.2761 38.4634 23.1492C38.5178 23.0223 38.6069 22.9148 38.7197 22.84C38.8324 22.7653 38.9638 22.7266 39.0975 22.7288ZM21.6046 16.8166C21.9949 16.8146 22.3781 16.9256 22.7112 17.1371C23.0443 17.3485 23.3141 17.6521 23.4905 18.0138C23.6534 18.3481 23.7311 18.7201 23.7162 19.0944C23.7013 19.4688 23.5943 19.8329 23.4054 20.152C23.2165 20.4712 22.952 20.7347 22.6371 20.9175C22.3222 21.1003 21.9675 21.1962 21.6068 21.1961C21.2156 21.1973 20.8318 21.0852 20.4986 20.8722C20.1655 20.6592 19.8962 20.3538 19.721 19.9904C19.56 19.6565 19.4837 19.2854 19.4996 18.9123C19.5154 18.5391 19.6227 18.1764 19.8114 17.8584C20.0001 17.5405 20.2638 17.2779 20.5777 17.0956C20.8915 16.9132 21.245 16.8172 21.6046 16.8166ZM26.5808 16.801C27.0502 16.8017 27.5059 16.9649 27.8759 17.2648C28.2459 17.5648 28.5091 17.9843 28.6237 18.457C28.7383 18.9297 28.6978 19.4287 28.5087 19.8748C28.3196 20.321 27.9926 20.6889 27.5795 20.9203C27.1664 21.1518 26.6908 21.2335 26.228 21.1526C25.7651 21.0717 25.3415 20.8328 25.0241 20.4737C24.7066 20.1146 24.5136 19.6558 24.4755 19.1699C24.4374 18.684 24.5564 18.1988 24.8137 17.7911C25.006 17.4867 25.2682 17.2368 25.5767 17.064C25.8852 16.8911 26.2303 16.8008 26.5808 16.801ZM15.6784 18.3587C16.054 17.7638 16.8228 17.5976 17.3956 17.9877C17.9684 18.3778 18.1284 19.1763 17.753 19.7713C17.3774 20.3662 16.6086 20.5325 16.0358 20.1425C15.8994 20.0498 15.782 19.9302 15.6902 19.7904C15.5984 19.6505 15.5341 19.4933 15.5009 19.3276C15.4677 19.1619 15.4663 18.991 15.4967 18.8248C15.5272 18.6585 15.5889 18.5001 15.6784 18.3587ZM30.9128 17.881C31.0582 17.8047 31.2167 17.7589 31.3792 17.7463C31.5417 17.7338 31.705 17.7546 31.8597 17.8076C32.0144 17.8607 32.1576 17.9449 32.2809 18.0555C32.4043 18.166 32.5054 18.3008 32.5786 18.452C32.8867 19.0875 32.6404 19.862 32.0287 20.1821C31.4168 20.5021 30.671 20.2463 30.3629 19.611C30.0548 18.9755 30.301 18.2009 30.9128 17.8808V17.881ZM11.5758 15.9378C11.7021 15.7378 11.8996 15.5981 12.125 15.5494C12.2366 15.5253 12.3517 15.5242 12.4637 15.5463C12.5757 15.5684 12.6824 15.6132 12.7777 15.6781C12.873 15.743 12.9551 15.8268 13.0193 15.9247C13.0834 16.0225 13.1284 16.1326 13.1516 16.2485C13.1748 16.3644 13.1758 16.4839 13.1546 16.6002C13.1333 16.7165 13.0902 16.8274 13.0277 16.9264C12.9015 17.1264 12.7039 17.266 12.4785 17.3147C12.2531 17.3634 12.0184 17.3171 11.8258 17.186C11.6333 17.0549 11.4988 16.8498 11.4519 16.6157C11.405 16.3816 11.4496 16.1377 11.5758 15.9378ZM35.4812 15.5729C35.6864 15.4686 35.9229 15.4526 36.1394 15.5282C36.3559 15.6038 36.535 15.765 36.6378 15.9769C36.7407 16.1888 36.7589 16.4342 36.6887 16.66C36.6184 16.8857 36.4653 17.0736 36.2626 17.1829C36.0568 17.2904 35.8183 17.3087 35.5996 17.2337C35.3809 17.1587 35.1998 16.9966 35.096 16.783C34.9927 16.5694 34.9752 16.322 35.0474 16.0951C35.1196 15.8681 35.2757 15.6803 35.4812 15.5728V15.5729ZM22.8437 14.5513C22.8829 13.8414 23.4689 13.2987 24.1526 13.3391C24.8362 13.3795 25.3589 13.9878 25.3203 14.698C25.2817 15.408 24.6963 15.9512 24.0126 15.9114C23.3283 15.8709 22.805 15.2621 22.8437 14.5513ZM18.0796 12.5648C18.2031 12.5001 18.3378 12.4614 18.4757 12.4507C18.6137 12.4401 18.7524 12.4578 18.8838 12.5028C19.0152 12.5479 19.1367 12.6193 19.2415 12.7131C19.3463 12.807 19.4323 12.9213 19.4946 13.0496C19.5569 13.178 19.5942 13.3178 19.6044 13.4611C19.6146 13.6044 19.5976 13.7484 19.5542 13.8849C19.5109 14.0214 19.4421 14.1476 19.3518 14.2565C19.2614 14.3653 19.1513 14.4546 19.0278 14.5193C18.7782 14.6499 18.489 14.6722 18.2236 14.5813C17.9582 14.4903 17.7385 14.2936 17.6128 14.0345C17.487 13.7753 17.4656 13.4748 17.5531 13.1992C17.6407 12.9236 17.83 12.6954 18.0796 12.5648ZM28.7226 12.9159C28.8368 12.7346 29.0001 12.5925 29.1919 12.5076C29.3838 12.4227 29.5955 12.3988 29.8005 12.4388C30.0054 12.4789 30.1944 12.5812 30.3433 12.7327C30.4923 12.8843 30.5947 13.0783 30.6376 13.2903C30.6804 13.5023 30.6618 13.7227 30.5841 13.9237C30.5063 14.1247 30.373 14.2972 30.2008 14.4195C30.0287 14.5418 29.8255 14.6083 29.617 14.6107C29.4084 14.6131 29.2039 14.5512 29.0292 14.4329C28.913 14.3543 28.8129 14.2527 28.7346 14.1339C28.6562 14.0151 28.6012 13.8814 28.5728 13.7405C28.5443 13.5996 28.5428 13.4542 28.5686 13.3127C28.5943 13.1712 28.6466 13.0363 28.7226 12.9159ZM16.2686 9.37908C16.4297 9.29529 16.6162 9.28109 16.7874 9.33959C16.9586 9.3981 17.1005 9.52455 17.1823 9.69135C17.264 9.85816 17.2789 10.0518 17.2237 10.2299C17.1685 10.4081 17.0476 10.5563 16.8876 10.6423C16.8073 10.685 16.7196 10.7107 16.6297 10.718C16.5398 10.7253 16.4494 10.7141 16.3636 10.6849C16.2779 10.6557 16.1986 10.6093 16.1303 10.5481C16.0619 10.487 16.0059 10.4124 15.9654 10.3287C15.8847 10.161 15.8713 9.96683 15.9281 9.78884C15.985 9.61085 16.1074 9.46351 16.2686 9.37908ZM30.9945 9.58757C31.0436 9.50966 31.1069 9.44254 31.1809 9.39005C31.2549 9.33755 31.3381 9.30071 31.4259 9.28163C31.5136 9.26255 31.604 9.2616 31.6921 9.27883C31.7802 9.29607 31.8641 9.33115 31.9391 9.38207C32.0141 9.433 32.0788 9.49877 32.1293 9.57563C32.1798 9.6525 32.2153 9.73895 32.2337 9.83005C32.2521 9.92115 32.253 10.0151 32.2364 10.1066C32.2198 10.1981 32.186 10.2852 32.137 10.3631C32.038 10.5205 31.8828 10.6305 31.7057 10.6691C31.5286 10.7076 31.344 10.6715 31.1925 10.5687C31.041 10.4659 30.935 10.3047 30.8979 10.1208C30.8608 9.9368 30.8955 9.74492 30.9945 9.58757ZM23.7847 8.48668C23.8927 8.44578 24.0075 8.42756 24.1223 8.4331C24.2371 8.43863 24.3498 8.46781 24.4537 8.51892C24.5576 8.57004 24.6506 8.64208 24.7275 8.73087C24.8044 8.81966 24.8635 8.92342 24.9014 9.03613C24.9394 9.14884 24.9554 9.26826 24.9485 9.38745C24.9417 9.50664 24.9121 9.62323 24.8615 9.73045C24.8109 9.83766 24.7403 9.93338 24.6538 10.012C24.5673 10.0907 24.4666 10.1507 24.3576 10.1886C24.1412 10.2639 23.905 10.2476 23.7 10.1432C23.4951 10.0389 23.338 9.85499 23.2627 9.63125C23.1873 9.4075 23.1999 9.16194 23.2976 8.94772C23.3953 8.73351 23.5703 8.56788 23.7847 8.48668Z" fill="#0033AD"/>
</g>
<defs>
<clipPath id="clip0_227_531">
<rect width="31.3333" height="30.1282" fill="white" transform="translate(8.43579 8.43579)"/>
</clipPath>
</defs>
</svg>
