<svg width="49" height="49" viewBox="0 0 49 49" fill="none" xmlns="http://www.w3.org/2000/svg">
<rect x="1" y="1" width="47" height="47" rx="23.5" fill="#1B2783"/>
<path d="M19.1185 19.2736L21.8604 23.8411C23.1503 23.0651 27.3891 20.929 25.8355 18.344C24.2184 15.6523 20.4085 18.5009 19.1185 19.2736ZM23.2471 26.1457L26.271 31.1821C27.8197 30.251 32.8761 27.651 31.1689 24.8123C29.3883 21.8469 24.7975 25.2128 23.2471 26.1457Z" fill="url(#paint0_linear_227_452)"/>
<path d="M12.3567 4.27446C1.18907 10.9864 -2.42055 25.4766 4.29137 36.6442C10.9983 47.8102 25.4918 51.4231 36.6545 44.7196C47.8221 38.0076 51.4384 23.5141 44.7248 12.3481C38.0162 1.1805 23.5227 -2.43245 12.3567 4.27446ZM29.4886 14.7612C30.8721 16.6286 30.7552 18.3174 29.8374 19.7893C32.3356 19 34.4817 19.4773 35.9619 22.5462C37.7959 26.3561 35.6882 28.941 31.9735 31.4743L34.2531 35.2691L31.9685 36.6426L29.7206 32.9028C29.1107 33.2689 28.4971 33.6288 27.8799 33.9825L30.1411 37.7423L27.8549 39.1107L25.5703 35.3108C25.0312 35.6296 24.4805 35.9467 23.9282 36.2788L20.951 38.071L19.7662 35.0639C19.7662 35.0639 21.4734 34.0743 21.4283 34.0659C22.0758 33.6754 21.9673 33.1097 21.8305 32.7926L18.2325 26.7949L18.4729 26.6514C18.386 26.6884 18.3018 26.7313 18.2209 26.7799L15.6492 22.4995C15.2804 22.0873 14.658 21.7285 13.7301 22.2858C13.7418 22.2375 12.0697 23.2855 12.0697 23.2855L10.5994 20.844L13.7568 18.9482L13.7635 18.9583C14.2374 18.6746 14.718 18.3742 15.207 18.0654L12.9491 14.309L15.2354 12.9339L17.4482 16.6153C18.0506 16.2364 18.6598 15.8543 19.2605 15.4938L17.0627 11.8341L19.349 10.459L21.6069 14.2155C24.7158 12.7053 27.5995 12.2113 29.4886 14.7612Z" fill="url(#paint1_linear_227_452)"/>
<defs>
<linearGradient id="paint0_linear_227_452" x1="19.8702" y1="18.5218" x2="30.0093" y2="28.6609" gradientUnits="userSpaceOnUse">
<stop stop-color="#F6BA5F"/>
<stop offset="1" stop-color="#E76E2A"/>
</linearGradient>
<linearGradient id="paint1_linear_227_452" x1="7.82247" y1="7.81058" x2="41.1921" y2="41.1802" gradientUnits="userSpaceOnUse">
<stop stop-color="#F6BA5F"/>
<stop offset="1" stop-color="#E76E2A"/>
</linearGradient>
</defs>
</svg>
