<svg width="47" height="47" viewBox="0 0 47 47" fill="none" xmlns="http://www.w3.org/2000/svg">
<rect width="47" height="47" rx="23.5" fill="#E3D341"/>
<g clip-path="url(#clip0_227_235)">
<path d="M27.5564 31.749C27.7162 32.0258 27.7595 32.3547 27.6768 32.6635C27.5941 32.9722 27.3921 33.2354 27.1154 33.3952L25.6089 34.2653C25.1509 34.5298 24.6314 34.669 24.1025 34.669C23.5737 34.669 23.0541 34.5298 22.5961 34.2653L21.0897 33.394C20.8152 33.2331 20.6154 32.9701 20.5341 32.6624C20.4528 32.3547 20.4964 32.0274 20.6555 31.7518C20.8147 31.4762 21.0763 31.2747 21.3834 31.1913C21.6906 31.108 22.0182 31.1494 22.2948 31.3067L23.8013 32.1768C23.8929 32.2297 23.9968 32.2576 24.1025 32.2576C24.2083 32.2576 24.3122 32.2297 24.4038 32.1768L25.9102 31.3067C26.187 31.1469 26.516 31.1036 26.8247 31.1863C27.1334 31.2691 27.3966 31.4722 27.5564 31.749ZM33.4953 21.8356C33.8149 21.8356 34.1215 21.9626 34.3475 22.1886C34.5735 22.4146 34.7004 22.7211 34.7004 23.0408V27.2768C34.7004 27.8056 34.5612 28.3252 34.2968 28.7832C34.0323 29.2411 33.652 29.6215 33.194 29.8859L29.5256 32.0045C29.3885 32.0836 29.2371 32.135 29.0801 32.1556C28.9232 32.1762 28.7637 32.1657 28.6107 32.1247C28.4578 32.0837 28.3145 32.013 28.1889 31.9166C28.0633 31.8202 27.9579 31.7 27.8788 31.5628C27.7997 31.4257 27.7483 31.2743 27.7277 31.1173C27.7071 30.9604 27.7176 30.8009 27.7586 30.6479C27.7996 30.495 27.8703 30.3517 27.9667 30.2261C28.0631 30.1005 28.1834 29.9951 28.3205 29.916L31.9889 27.7986C32.0805 27.7457 32.1566 27.6697 32.2094 27.5781C32.2623 27.4865 32.2902 27.3826 32.2902 27.2768V23.0408C32.2902 22.7211 32.4171 22.4146 32.6432 22.1886C32.8692 21.9626 33.1757 21.8356 33.4953 21.8356ZM14.7098 21.8356C15.0294 21.8356 15.3359 21.9626 15.5619 22.1886C15.7879 22.4146 15.9149 22.7211 15.9149 23.0408V27.2768C15.9149 27.3826 15.9427 27.4865 15.9956 27.5781C16.0485 27.6697 16.1246 27.7457 16.2162 27.7986L19.8846 29.916C20.1591 30.077 20.3589 30.34 20.4402 30.6476C20.5215 30.9553 20.4779 31.2826 20.3188 31.5582C20.1596 31.8338 19.898 32.0353 19.5909 32.1187C19.2837 32.2021 18.9561 32.1606 18.6795 32.0033L15.011 29.8871C14.5531 29.6227 14.1727 29.2423 13.9083 28.7844C13.6439 28.3264 13.5047 27.8068 13.5046 27.278V23.042C13.5046 22.7223 13.6316 22.4158 13.8576 22.1898C14.0836 21.9638 14.3901 21.8356 14.7098 21.8356ZM28.4711 17.4321L28.6145 17.5008L30.4379 18.5348C30.6033 18.6287 30.7441 18.7604 30.8488 18.9192C30.9536 19.078 31.0192 19.2593 31.0405 19.4483L31.0477 19.5929L31.032 21.6898C31.0304 21.8757 30.9859 22.0587 30.9018 22.2244C30.8178 22.3902 30.6965 22.5343 30.5476 22.6455L30.4295 22.7238L27.1154 24.6376V28.465C27.1154 28.6511 27.0723 28.8347 26.9895 29.0013C26.9067 29.1679 26.7864 29.3131 26.6381 29.4255L26.52 29.5051L24.7123 30.5656C24.551 30.6602 24.3699 30.716 24.1834 30.7286C23.9968 30.7411 23.8099 30.7101 23.6374 30.6379L23.4927 30.5656L21.685 29.5051C21.5244 29.4108 21.3878 29.2805 21.286 29.1245C21.1841 28.9685 21.1198 28.7911 21.0982 28.606L21.0897 28.465V24.6363L17.7756 22.7238C17.6144 22.6307 17.477 22.5015 17.3741 22.3463C17.2713 22.1912 17.2057 22.0143 17.1827 21.8296L17.173 21.6886L17.1574 19.5917C17.1561 19.4017 17.1998 19.2142 17.2849 19.0443C17.3699 18.8745 17.4939 18.7271 17.6467 18.6143L17.7672 18.5348L19.5917 17.5008C19.7509 17.4104 19.9286 17.3574 20.1113 17.3459C20.294 17.3344 20.477 17.3647 20.6462 17.4345L20.7884 17.5056L24.1025 19.4181L27.4166 17.5056C27.5753 17.414 27.7527 17.3598 27.9354 17.3471C28.1181 17.3343 28.3013 17.3634 28.4711 17.4321ZM30.8862 24.4279V26.1187C30.8862 26.3302 30.8305 26.538 30.7247 26.7212C30.619 26.9044 30.4668 27.0565 30.2836 27.1623L28.8194 28.0071C28.7644 28.0388 28.7021 28.0555 28.6386 28.0555C28.5751 28.0555 28.5127 28.0388 28.4578 28.007C28.4028 27.9753 28.3572 27.9296 28.3254 27.8746C28.2937 27.8196 28.2771 27.7572 28.2771 27.6938V26.003C28.2771 25.7914 28.3328 25.5836 28.4386 25.4004C28.5443 25.2172 28.6965 25.0651 28.8797 24.9593L30.3439 24.1145C30.3989 24.0828 30.4612 24.0661 30.5247 24.0661C30.5882 24.0661 30.6506 24.0828 30.7055 24.1146C30.7605 24.1463 30.8061 24.192 30.8379 24.247C30.8696 24.302 30.8862 24.3644 30.8862 24.4279ZM17.7865 24.082L17.8612 24.1145L19.3254 24.9593C19.4879 25.0532 19.6262 25.1836 19.7293 25.3403C19.8325 25.497 19.8976 25.6756 19.9195 25.862L19.928 26.003V27.6938C19.9281 27.7505 19.9148 27.8064 19.8893 27.8571C19.8638 27.9077 19.8267 27.9516 19.7811 27.9853C19.7354 28.019 19.6825 28.0414 19.6266 28.0509C19.5707 28.0603 19.5133 28.0565 19.4592 28.0396L19.3857 28.0071L17.9214 27.1623C17.7591 27.0686 17.6209 26.9383 17.5178 26.7818C17.4146 26.6253 17.3494 26.447 17.3273 26.2609L17.3189 26.1187V24.4279C17.3187 24.3776 17.329 24.3279 17.3491 24.2819C17.3692 24.2358 17.3986 24.1945 17.4356 24.1605C17.4726 24.1264 17.5162 24.1005 17.5637 24.0843C17.6113 24.0681 17.6617 24.062 17.7117 24.0663L17.7877 24.082H17.7865ZM31.6334 15.0074L33.194 15.9088C33.652 16.1732 34.0323 16.5536 34.2968 17.0115C34.5612 17.4695 34.7004 17.9891 34.7004 18.5179V20.2569C34.7004 20.5765 34.5735 20.8831 34.3475 21.1091C34.1215 21.3351 33.8149 21.462 33.4953 21.462C33.1757 21.462 32.8692 21.3351 32.6432 21.1091C32.4171 20.8831 32.2902 20.5765 32.2902 20.2569V18.5179C32.2902 18.4121 32.2623 18.3082 32.2094 18.2166C32.1566 18.125 32.0805 18.049 31.9889 17.9961L30.4283 17.0947C30.1537 16.9337 29.954 16.6707 29.8726 16.363C29.7913 16.0554 29.835 15.728 29.9941 15.4524C30.1532 15.1768 30.4149 14.9754 30.722 14.892C31.0291 14.8086 31.3567 14.8501 31.6334 15.0074ZM18.1637 15.4798C18.3235 15.7566 18.3668 16.0855 18.2841 16.3942C18.2013 16.703 17.9994 16.9662 17.7226 17.126L16.2162 17.9961C16.1246 18.049 16.0485 18.125 15.9956 18.2166C15.9427 18.3082 15.9149 18.4121 15.9149 18.5179V20.2569C15.9149 20.5765 15.7879 20.8831 15.5619 21.1091C15.3359 21.3351 15.0294 21.462 14.7098 21.462C14.3901 21.462 14.0836 21.3351 13.8576 21.1091C13.6316 20.8831 13.5046 20.5765 13.5046 20.2569V18.5179C13.5044 17.9889 13.6436 17.4691 13.908 17.0109C14.1724 16.5526 14.5529 16.1721 15.011 15.9076L16.5175 15.0375C16.7943 14.8777 17.1232 14.8344 17.4319 14.9171C17.7406 14.9998 18.0038 15.203 18.1637 15.4798ZM24.7051 15.4135L26.1693 16.2583C26.2244 16.29 26.2701 16.3357 26.3019 16.3907C26.3338 16.4457 26.3505 16.5081 26.3505 16.5716C26.3505 16.6352 26.3338 16.6976 26.3019 16.7526C26.2701 16.8076 26.2244 16.8533 26.1693 16.885L24.7051 17.7273C24.5219 17.8331 24.3141 17.8888 24.1025 17.8888C23.891 17.8888 23.6832 17.8331 23.5 17.7273L22.0357 16.8826C21.9807 16.8509 21.9349 16.8052 21.9031 16.7502C21.8713 16.6952 21.8546 16.6328 21.8546 16.5692C21.8546 16.5057 21.8713 16.4433 21.9031 16.3882C21.9349 16.3332 21.9807 16.2876 22.0357 16.2559L23.5 15.4135C23.6832 15.3077 23.891 15.252 24.1025 15.252C24.3141 15.252 24.5219 15.3077 24.7051 15.4135ZM25.6089 11.5306L29.2774 13.648C29.5543 13.8078 29.7564 14.0711 29.8393 14.3799C29.9221 14.6888 29.8788 15.0178 29.719 15.2948C29.5592 15.5717 29.2959 15.7739 28.9871 15.8567C28.6783 15.9395 28.3492 15.8963 28.0722 15.7365L24.4038 13.6167C24.3122 13.5638 24.2083 13.5359 24.1025 13.5359C23.9968 13.5359 23.8929 13.5638 23.8013 13.6167L20.1328 15.7341C19.9957 15.8144 19.8441 15.8669 19.6866 15.8884C19.5291 15.91 19.369 15.9001 19.2153 15.8595C19.0617 15.8189 18.9176 15.7483 18.7913 15.6517C18.6651 15.5552 18.5592 15.4346 18.4797 15.297C18.4002 15.1594 18.3488 15.0074 18.3283 14.8498C18.3078 14.6922 18.3187 14.532 18.3603 14.3787C18.402 14.2253 18.4735 14.0817 18.5709 13.9561C18.6683 13.8304 18.7896 13.7253 18.9277 13.6468L22.5961 11.5294C23.0541 11.2649 23.5737 11.1257 24.1025 11.1257C24.6314 11.1257 25.1509 11.2649 25.6089 11.5294V11.5306Z" fill="#1B2783"/>
</g>
<defs>
<clipPath id="clip0_227_235">
<rect width="28.9231" height="28.9231" fill="white" transform="translate(9.64111 8.43579)"/>
</clipPath>
</defs>
</svg>
