<svg width="47" height="47" viewBox="0 0 47 47" fill="none" xmlns="http://www.w3.org/2000/svg">
<rect width="47" height="47" rx="23.5" fill="#FFED48"/>
<g clip-path="url(#clip0_227_221)">
<path d="M33.6486 20.1859L33.7329 20.2558L35.948 22.4708C36.0478 22.5705 36.1094 22.702 36.1222 22.8426C36.135 22.9831 36.0981 23.1236 36.0179 23.2397L35.948 23.324L24.5282 34.7426C24.4285 34.8421 24.2972 34.9036 24.157 34.9164C24.0167 34.9291 23.8765 34.8924 23.7605 34.8125L23.6761 34.7426L21.4611 32.5264C21.3616 32.4267 21.3001 32.2954 21.2873 32.1552C21.2746 32.0149 21.3113 31.8747 21.3912 31.7587L21.4611 31.6743L32.8797 20.2558C32.9667 20.1688 33.0782 20.1105 33.1993 20.0887C33.3203 20.0669 33.4452 20.0828 33.557 20.134L33.6486 20.1859ZM29.1293 15.6546L31.3468 17.8696C31.4597 17.9826 31.5232 18.1358 31.5232 18.2956C31.5232 18.4554 31.4597 18.6086 31.3468 18.7216L19.927 30.1414C19.814 30.2544 19.6607 30.3178 19.501 30.3178C19.3412 30.3178 19.188 30.2544 19.075 30.1414L16.8587 27.9252C16.7458 27.8122 16.6823 27.659 16.6823 27.4992C16.6823 27.3394 16.7458 27.1862 16.8587 27.0732L28.2785 15.6546C28.3915 15.5416 28.5448 15.4782 28.7045 15.4782C28.8643 15.4782 29.0175 15.5416 29.1305 15.6546H29.1293ZM14.4738 20.2558C14.5734 20.1562 14.7047 20.0948 14.845 20.082C14.9852 20.0692 15.1255 20.106 15.2414 20.1859L15.3258 20.2558L17.5408 22.4708C17.6406 22.5705 17.7023 22.702 17.7151 22.8426C17.7279 22.9831 17.6909 23.1236 17.6107 23.2397L17.5408 23.324L15.3258 25.539C15.2261 25.6389 15.0945 25.7005 14.954 25.7133C14.8135 25.7261 14.673 25.6891 14.5569 25.6089L14.4726 25.539L12.2575 23.324C12.1577 23.2243 12.0961 23.0927 12.0833 22.9522C12.0705 22.8117 12.1074 22.6712 12.1876 22.5551L12.2575 22.4708L14.4738 20.2558ZM24.445 10.9823L24.5294 11.0522L26.7444 13.2684C26.8442 13.3681 26.9059 13.4997 26.9187 13.6402C26.9314 13.7807 26.8945 13.9212 26.8143 14.0373L26.7444 14.1204L19.927 20.9379C19.8273 21.0377 19.6957 21.0993 19.5552 21.1121C19.4147 21.1249 19.2742 21.088 19.1581 21.0078L19.075 20.9379L16.8587 18.7216C16.7591 18.6218 16.6976 18.4901 16.6851 18.3496C16.6725 18.2091 16.7097 18.0687 16.79 17.9528L16.8587 17.8696L23.6761 11.0522C23.7632 10.9654 23.8748 10.9073 23.9959 10.8858C24.117 10.8642 24.2417 10.8803 24.3534 10.9317L24.445 10.9823Z" fill="#1B2783"/>
</g>
<defs>
<clipPath id="clip0_227_221">
<rect width="28.9231" height="28.9231" fill="white" transform="translate(9.64111 8.43579)"/>
</clipPath>
</defs>
</svg>
