<svg width="47" height="47" viewBox="0 0 47 47" fill="none" xmlns="http://www.w3.org/2000/svg">
<rect width="47" height="47" rx="23.5" fill="#C9BA93"/>
<g clip-path="url(#clip0_227_466)">
<path fill-rule="evenodd" clip-rule="evenodd" d="M16.922 21.2404V15.623C16.5529 15.4932 16.2416 15.2369 16.0433 14.8995C15.845 14.5621 15.7725 14.1654 15.8387 13.7797C15.9049 13.3941 16.1054 13.0442 16.4048 12.7922C16.7041 12.5402 17.083 12.4023 17.4744 12.4028H24.1026C26.8859 12.4028 29.5553 13.5085 31.5234 15.4766C33.4915 17.4448 34.5972 20.1141 34.5972 22.8975C34.5972 25.6808 33.4915 28.3502 31.5234 30.3183C29.5553 32.2865 26.8859 33.3921 24.1026 33.3921H17.4744C17.083 33.3927 16.7041 33.2548 16.4048 33.0028C16.1054 32.7508 15.9049 32.4009 15.8387 32.0152C15.7725 31.6295 15.845 31.2329 16.0433 30.8955C16.2416 30.5581 16.5529 30.3018 16.922 30.1719V24.5545H15.265C14.8255 24.5545 14.404 24.38 14.0932 24.0692C13.7825 23.7584 13.6079 23.337 13.6079 22.8975C13.6079 22.458 13.7825 22.0365 14.0932 21.7258C14.404 21.415 14.8255 21.2404 15.265 21.2404H16.922ZM20.2361 24.5545V30.078H24.1026C26.007 30.078 27.8334 29.3215 29.18 27.9749C30.5266 26.6283 31.2831 24.8019 31.2831 22.8975C31.2831 20.9931 30.5266 19.1667 29.18 17.8201C27.8334 16.4735 26.007 15.7169 24.1026 15.7169H20.2361V21.2404H25.2073C25.6467 21.2404 26.0682 21.415 26.379 21.7258C26.6897 22.0365 26.8643 22.458 26.8643 22.8975C26.8643 23.337 26.6897 23.7584 26.379 24.0692C26.0682 24.38 25.6467 24.5545 25.2073 24.5545H20.2361Z" fill="#1B2783"/>
</g>
<defs>
<clipPath id="clip0_227_466">
<rect width="26.5128" height="26.5128" fill="white" transform="translate(10.8462 9.64111)"/>
</clipPath>
</defs>
</svg>
