<svg width="47" height="47" viewBox="0 0 47 47" fill="none" xmlns="http://www.w3.org/2000/svg">
<rect width="47" height="47" rx="23.5" fill="#1B2783"/>
<g clip-path="url(#clip0_227_249)">
<path d="M23.5 0C36.4793 0 47 10.5207 47 23.5C47 36.4793 36.4793 47 23.5 47C10.5207 47 0 36.4793 0 23.5C0 10.5207 10.5207 0 23.5 0ZM15.9653 11.2536L9.73341 14.7374C9.45331 14.8823 9.21891 15.1021 9.05632 15.3723C8.89373 15.6425 8.80933 15.9525 8.8125 16.2679V23.2885C8.8125 23.923 9.13709 24.5032 9.73341 24.8204L15.9668 28.3043C16.5088 28.6201 17.2137 28.6201 17.8086 28.3043L22.0371 25.9278L24.9085 24.2917L29.1371 21.9167C29.679 21.5994 30.3826 21.5994 30.9789 21.9167L34.285 23.7644C34.8285 24.0802 35.2059 24.6603 35.2059 25.2948V29.0431C35.2059 29.6761 34.8828 30.2562 34.285 30.5735L30.9803 32.4741C30.4369 32.7913 29.7319 32.7913 29.1371 32.4741L25.8309 30.6264C25.2875 30.3091 24.9085 29.729 24.9085 29.0959V26.6666L22.0371 28.3043V30.7321C22.0371 31.3652 22.3617 31.9468 22.958 32.2626L29.1914 35.7464C29.7334 36.0637 30.4369 36.0637 31.0332 35.7464L37.2666 32.2626C37.8086 31.9468 38.1875 31.3666 38.1875 30.7321V23.7115C38.1907 23.3962 38.1063 23.0861 37.9437 22.8159C37.7811 22.5457 37.5467 22.3259 37.2666 22.1811L30.9803 18.6428C30.4369 18.3271 29.7319 18.3271 29.1371 18.6428L24.9085 21.0722L22.0371 22.6555L17.8086 25.0833C17.2666 25.4006 16.5631 25.4006 15.9668 25.0833L12.6063 23.1828C12.0643 22.867 11.6854 22.2868 11.6854 21.6523V17.9041C11.6854 17.271 12.01 16.6909 12.6063 16.3736L15.911 14.5259C16.4544 14.2087 17.1594 14.2087 17.7557 14.5259L21.0604 16.3736C21.6038 16.6909 21.9828 17.271 21.9828 17.9041V20.3334L24.8542 18.6957V16.2679C24.8574 15.9525 24.773 15.6425 24.6104 15.3723C24.4478 15.1021 24.2134 14.8823 23.9333 14.7374L17.8086 11.2536C17.2666 10.9363 16.5631 10.9363 15.9668 11.2536H15.9653Z" fill="#C686F9"/>
</g>
<defs>
<clipPath id="clip0_227_249">
<rect width="47" height="47" fill="white"/>
</clipPath>
</defs>
</svg>
