<svg width="47" height="47" viewBox="0 0 47 47" fill="none" xmlns="http://www.w3.org/2000/svg">
<rect width="47" height="47" rx="23.5" fill="url(#paint0_linear_227_261)"/>
<g clip-path="url(#clip0_227_261)">
<path fill-rule="evenodd" clip-rule="evenodd" d="M18.4302 13.6095C18.6561 13.3834 18.9626 13.2564 19.2822 13.2563H34.9489C35.1872 13.2564 35.4201 13.3271 35.6183 13.4595C35.8164 13.592 35.9708 13.7802 36.062 14.0003C36.1532 14.2205 36.1771 14.4628 36.1306 14.6965C36.0841 14.9303 35.9694 15.145 35.8009 15.3135L32.1855 18.9289C31.9596 19.1549 31.6531 19.2819 31.3335 19.282H15.6668C15.4285 19.2819 15.1956 19.2112 14.9974 19.0788C14.7993 18.9464 14.6449 18.7582 14.5537 18.538C14.4625 18.3178 14.4386 18.0756 14.4851 17.8418C14.5316 17.6081 14.6463 17.3934 14.8148 17.2248L18.4302 13.6095ZM14.6039 21.1234C14.7069 20.9311 14.8602 20.7703 15.0474 20.6582C15.2346 20.5462 15.4487 20.487 15.6668 20.4871H31.3335C31.5319 20.4871 31.7272 20.536 31.9021 20.6296C32.077 20.7231 32.2261 20.8584 32.3362 21.0234L34.7464 24.6388C34.8675 24.8203 34.9371 25.0312 34.9476 25.2492C34.9582 25.4671 34.9095 25.6838 34.8065 25.8762C34.7036 26.0685 34.5504 26.2294 34.3632 26.3415C34.176 26.4536 33.9619 26.5128 33.7438 26.5128H18.0771C17.8787 26.5128 17.6834 26.4639 17.5085 26.3703C17.3336 26.2768 17.1845 26.1415 17.0744 25.9765L14.6642 22.3611C14.543 22.1796 14.4734 21.9686 14.4628 21.7506C14.4522 21.5326 14.501 21.3158 14.6039 21.1234ZM17.2251 28.071C17.451 27.845 17.7575 27.718 18.0771 27.7179H33.7438C33.9821 27.7179 34.215 27.7886 34.4132 27.9211C34.6113 28.0535 34.7657 28.2417 34.8569 28.4619C34.9481 28.682 34.972 28.9243 34.9255 29.1581C34.879 29.3918 34.7643 29.6065 34.5958 29.775L30.9804 33.3904C30.7544 33.6164 30.448 33.7435 30.1284 33.7435H14.4617C14.2234 33.7435 13.9904 33.6728 13.7923 33.5403C13.5942 33.4079 13.4397 33.2197 13.3486 32.9995C13.2574 32.7794 13.2335 32.5371 13.28 32.3034C13.3265 32.0696 13.4412 31.8549 13.6097 31.6864L17.2251 28.071Z" fill="#1B2783"/>
</g>
<defs>
<linearGradient id="paint0_linear_227_261" x1="43.9872" y1="1.80769" x2="8.4359" y2="45.1923" gradientUnits="userSpaceOnUse">
<stop stop-color="#BDD7EE"/>
<stop offset="1" stop-color="#9699AD"/>
</linearGradient>
<clipPath id="clip0_227_261">
<rect width="28.9231" height="28.9231" fill="white" transform="translate(9.64111 8.43579)"/>
</clipPath>
</defs>
</svg>
