<svg width="47" height="47" viewBox="0 0 47 47" fill="none" xmlns="http://www.w3.org/2000/svg">
<rect width="47" height="47" rx="23.5" fill="#61C595"/>
<g clip-path="url(#clip0_227_315)">
<path d="M30.6344 13.2566C31.0592 13.2567 31.4765 13.3692 31.8439 13.5825C32.2113 13.7958 32.5158 14.1025 32.7265 14.4714L36.7444 21.4997C37.0066 21.9586 37.1107 22.4911 37.0406 23.015C36.9705 23.539 36.73 24.0253 36.3564 24.3992L25.1692 35.5864C25.0293 35.7263 24.8632 35.8373 24.6804 35.9131C24.4976 35.9888 24.3017 36.0278 24.1038 36.0278C23.906 36.0278 23.71 35.9888 23.5272 35.9131C23.3445 35.8373 23.1784 35.7263 23.0385 35.5864L11.8513 24.3992C11.4776 24.0253 11.2372 23.539 11.1671 23.015C11.0969 22.4911 11.201 21.9586 11.4632 21.4997L15.4799 14.4702C15.6907 14.1017 15.9951 13.7954 16.3622 13.5823C16.7294 13.3692 17.1463 13.2568 17.5708 13.2566H30.6344ZM27.718 16.872H20.4872C20.1801 16.8723 19.8846 16.9899 19.6613 17.2008C19.4379 17.4117 19.3035 17.6998 19.2855 18.0065C19.2675 18.3131 19.3673 18.615 19.5644 18.8506C19.7616 19.0861 20.0412 19.2375 20.3462 19.2738L20.4872 19.2822H22.8975V21.1442C21.984 21.2285 21.1537 21.4057 20.4824 21.6575C20.0064 21.8359 19.5798 22.0625 19.2616 22.3457C18.9435 22.6277 18.6795 23.0169 18.6795 23.5002C18.6795 23.9834 18.9435 24.3727 19.2616 24.6547C19.5798 24.9379 20.0064 25.1645 20.4824 25.3416C21.1983 25.6104 22.0949 25.796 23.0819 25.8719C22.9864 26.0237 22.9263 26.195 22.9059 26.3732L22.8975 26.513V28.9233C22.8978 29.2304 23.0154 29.5259 23.2263 29.7492C23.4372 29.9726 23.7254 30.107 24.032 30.125C24.3386 30.143 24.6406 30.0432 24.8761 29.8461C25.1116 29.6489 25.263 29.3693 25.2993 29.0643L25.3077 28.9233V26.513C25.3082 26.2862 25.2442 26.0638 25.1234 25.8719C26.1104 25.796 27.007 25.6116 27.7228 25.3416C28.1988 25.1645 28.6255 24.9379 28.9436 24.6547C29.2618 24.3727 29.5257 23.9834 29.5257 23.5002C29.5257 23.0169 29.2618 22.6277 28.9436 22.3457C28.6255 22.0625 28.1988 21.8359 27.7228 21.6587C27.0672 21.4236 26.3866 21.2651 25.6946 21.1863L25.3077 21.1442V19.2822H27.718C28.0252 19.2819 28.3206 19.1643 28.544 18.9534C28.7673 18.7426 28.9017 18.4544 28.9197 18.1477C28.9377 17.8411 28.838 17.5392 28.6408 17.3036C28.4437 17.0681 28.164 16.9167 27.859 16.8804L27.718 16.872ZM25.3065 22.3553C25.9863 22.415 26.6559 22.5596 27.2998 22.7855C27.6963 22.935 27.9747 23.0977 28.1434 23.2471C28.2166 23.3034 28.2746 23.3772 28.3121 23.4616L28.3206 23.5002L28.3121 23.5387C28.2746 23.6232 28.2166 23.6969 28.1434 23.7533C27.9747 23.9027 27.6963 24.0666 27.2998 24.2136C26.5105 24.5101 25.38 24.7053 24.1026 24.7053C22.8252 24.7053 21.6948 24.5101 20.9054 24.2136C20.5089 24.0654 20.2305 23.9027 20.0606 23.7533C19.9874 23.6969 19.9294 23.6232 19.8919 23.5387L19.8847 23.5002C19.8847 23.4845 19.8907 23.3977 20.0606 23.2471C20.2293 23.0977 20.5089 22.9338 20.9054 22.7867C21.4357 22.5879 22.119 22.4336 22.8987 22.3553C22.9126 22.6653 23.0455 22.958 23.2697 23.1724C23.494 23.3869 23.7923 23.5066 24.1026 23.5066C24.4129 23.5066 24.7112 23.3869 24.9355 23.1724C25.1598 22.958 25.2927 22.6653 25.3065 22.3553Z" fill="#1B2783"/>
</g>
<defs>
<clipPath id="clip0_227_315">
<rect width="28.9231" height="28.9231" fill="white" transform="translate(9.64111 9.64111)"/>
</clipPath>
</defs>
</svg>
