<svg width="47" height="47" viewBox="0 0 47 47" fill="none" xmlns="http://www.w3.org/2000/svg">
<rect width="47" height="47" rx="23.5" fill="#B7B7B5"/>
<g clip-path="url(#clip0_227_416)">
<path d="M17.5408 13.9937C17.3891 13.8309 17.2061 13.7003 17.0028 13.6098C16.7996 13.5192 16.5802 13.4705 16.3577 13.4666C16.1352 13.4626 15.9142 13.5036 15.7078 13.5869C15.5015 13.6703 15.3141 13.7943 15.1567 13.9516C14.9994 14.109 14.8753 14.2964 14.792 14.5028C14.7086 14.7091 14.6677 14.9301 14.6716 15.1526C14.6756 15.3751 14.7243 15.5945 14.8148 15.7978C14.9054 16.001 15.036 16.184 15.1988 16.3357L19.8054 20.9445C20.3696 21.509 21.0395 21.9568 21.7769 22.2623C22.5142 22.5678 23.3045 22.7251 24.1027 22.7251C24.9008 22.7251 25.6911 22.5678 26.4285 22.2623C27.1658 21.9568 27.8357 21.509 28.4 20.9445L33.0066 16.3368C33.3086 16.0244 33.4758 15.6059 33.4722 15.1714C33.4686 14.7369 33.2946 14.3213 32.9875 14.0139C32.6804 13.7065 32.2649 13.532 31.8304 13.5281C31.3959 13.5241 30.9773 13.6909 30.6646 13.9926L26.0558 18.6014C25.7993 18.8579 25.4948 19.0614 25.1597 19.2003C24.8246 19.3391 24.4654 19.4106 24.1027 19.4106C23.7399 19.4106 23.3808 19.3391 23.0456 19.2003C22.7105 19.0614 22.406 18.8579 22.1496 18.6014L17.5419 13.9926L17.5408 13.9937ZM17.5408 31.8015C17.2266 32.0942 16.8112 32.2535 16.3819 32.246C15.9526 32.2384 15.543 32.0645 15.2394 31.7609C14.9358 31.4573 14.7619 31.0477 14.7543 30.6184C14.7467 30.1891 14.9061 29.7736 15.1988 29.4595L19.8054 24.8507C20.3696 24.2862 21.0395 23.8384 21.7769 23.5329C22.5142 23.2274 23.3045 23.0701 24.1027 23.0701C24.9008 23.0701 25.6911 23.2274 26.4285 23.5329C27.1658 23.8384 27.8357 24.2862 28.4 24.8507L33.0066 29.4584C33.3086 29.7708 33.4758 30.1893 33.4722 30.6238C33.4686 31.0583 33.2946 31.4739 32.9875 31.7813C32.6804 32.0887 32.2649 32.2632 31.8304 32.2671C31.3959 32.2711 30.9773 32.1043 30.6646 31.8026L26.0558 27.1938C25.7993 26.9373 25.4948 26.7338 25.1597 26.5949C24.8246 26.4561 24.4654 26.3846 24.1027 26.3846C23.7399 26.3846 23.3808 26.4561 23.0456 26.5949C22.7105 26.7338 22.406 26.9373 22.1496 27.1938L17.5419 31.8026L17.5408 31.8015Z" fill="#1B2783"/>
</g>
<defs>
<clipPath id="clip0_227_416">
<rect width="26.5128" height="26.5128" fill="white" transform="translate(10.8462 9.64111)"/>
</clipPath>
</defs>
</svg>
