<svg width="1000" height="287" viewBox="0 0 1000 287" fill="none" xmlns="http://www.w3.org/2000/svg">
<g opacity="0.17">
<path d="M975 301.334L950 286.667L975 272L1000 286.667L975 301.334Z" fill="#20B4FF"/>
<path d="M950 286.667V660.359L974.967 675L999.935 660.359V286.667L974.967 301.303L950 286.667Z" fill="url(#paint0_linear_24_865)"/>
</g>
<g opacity="0.17">
<path d="M267.5 251.261L242 236.63L267.5 222L293 236.63L267.5 251.261Z" fill="#20B4FF"/>
<path d="M242 236.63V609.396L267.467 624L292.934 609.396V236.63L267.467 251.23L242 236.63Z" fill="url(#paint1_linear_24_865)"/>
</g>
<g opacity="0.17">
<path d="M621.5 251.261L596 236.63L621.5 222L647 236.63L621.5 251.261Z" fill="#20B4FF"/>
<path d="M596 236.63V609.396L621.467 624L646.934 609.396V236.63L621.467 251.23L596 236.63Z" fill="url(#paint2_linear_24_865)"/>
</g>
<g opacity="0.17">
<path d="M318 273.334L293 258.667L318 244L343 258.667L318 273.334Z" fill="#20B4FF"/>
<path d="M293 258.667V632.359L317.967 647L342.935 632.359V258.667L317.967 273.303L293 258.667Z" fill="url(#paint3_linear_24_865)"/>
</g>
<g opacity="0.17">
<path d="M672 263.334L647 248.667L672 234L697 248.667L672 263.334Z" fill="#20B4FF"/>
<path d="M647 248.667V622.359L671.967 637L696.935 622.359V248.667L671.967 263.303L647 248.667Z" fill="url(#paint4_linear_24_865)"/>
</g>
<g opacity="0.17">
<path d="M15 129.334L-10 114.667L15 100L40 114.667L15 129.334Z" fill="#20B4FF"/>
<path d="M-10 114.667V488.359L14.9675 503L39.9349 488.359V114.667L14.9675 129.303L-10 114.667Z" fill="url(#paint5_linear_24_865)"/>
</g>
<g opacity="0.17">
<path d="M368.5 170.261L343 155.63L368.5 141L394 155.63L368.5 170.261Z" fill="#20B4FF"/>
<path d="M343 155.63V528.396L368.467 543L393.934 528.396V155.63L368.467 170.23L343 155.63Z" fill="url(#paint6_linear_24_865)"/>
</g>
<g opacity="0.17">
<path d="M722.5 170.261L697 155.63L722.5 141L748 155.63L722.5 170.261Z" fill="#20B4FF"/>
<path d="M697 155.63V528.396L722.467 543L747.934 528.396V155.63L722.467 170.23L697 155.63Z" fill="url(#paint7_linear_24_865)"/>
</g>
<g opacity="0.17">
<path d="M65.5 100.334L40 85.6668L65.5 71L91 85.6668L65.5 100.334Z" fill="#20B4FF"/>
<path d="M40 85.6667V459.359L65.4668 474L90.9336 459.359V85.6667L65.4668 100.303L40 85.6667Z" fill="url(#paint8_linear_24_865)"/>
</g>
<g opacity="0.17">
<path d="M419 100.334L394 85.6668L419 71L444 85.6668L419 100.334Z" fill="#20B4FF"/>
<path d="M394 85.6667V459.359L418.967 474L443.935 459.359V85.6667L418.967 100.303L394 85.6667Z" fill="url(#paint9_linear_24_865)"/>
</g>
<g opacity="0.17">
<path d="M773 100.334L748 85.6668L773 71L798 85.6668L773 100.334Z" fill="#20B4FF"/>
<path d="M748 85.6667V459.359L772.967 474L797.935 459.359V85.6667L772.967 100.303L748 85.6667Z" fill="url(#paint10_linear_24_865)"/>
</g>
<g opacity="0.17">
<path d="M116 159.261L91 144.63L116 130L141 144.63L116 159.261Z" fill="#20B4FF"/>
<path d="M91 144.63V517.396L115.967 532L140.935 517.396V144.63L115.967 159.23L91 144.63Z" fill="url(#paint11_linear_24_865)"/>
</g>
<g opacity="0.17">
<path d="M469.5 159.261L444 144.63L469.5 130L495 144.63L469.5 159.261Z" fill="#20B4FF"/>
<path d="M444 144.63V517.396L469.467 532L494.934 517.396V144.63L469.467 159.23L444 144.63Z" fill="url(#paint12_linear_24_865)"/>
</g>
<g opacity="0.17">
<path d="M823.5 159.261L798 144.63L823.5 130L849 144.63L823.5 159.261Z" fill="#20B4FF"/>
<path d="M798 144.63V517.396L823.467 532L848.934 517.396V144.63L823.467 159.23L798 144.63Z" fill="url(#paint13_linear_24_865)"/>
</g>
<g opacity="0.17">
<path d="M166.5 229.334L141 214.667L166.5 200L192 214.667L166.5 229.334Z" fill="#20B4FF"/>
<path d="M141 214.667V588.359L166.467 603L191.934 588.359V214.667L166.467 229.303L141 214.667Z" fill="url(#paint14_linear_24_865)"/>
</g>
<g opacity="0.17">
<path d="M520.5 229.334L495 214.667L520.5 200L546 214.667L520.5 229.334Z" fill="#20B4FF"/>
<path d="M495 214.667V588.359L520.467 603L545.934 588.359V214.667L520.467 229.303L495 214.667Z" fill="url(#paint15_linear_24_865)"/>
</g>
<g opacity="0.17">
<path d="M874 229.334L849 214.667L874 200L899 214.667L874 229.334Z" fill="#20B4FF"/>
<path d="M849 214.667V588.359L873.967 603L898.935 588.359V214.667L873.967 229.303L849 214.667Z" fill="url(#paint16_linear_24_865)"/>
</g>
<g opacity="0.17">
<path d="M217 151.261L192 136.63L217 122L242 136.63L217 151.261Z" fill="#20B4FF"/>
<path d="M192 136.63V509.396L216.967 524L241.935 509.396V136.63L216.967 151.23L192 136.63Z" fill="url(#paint17_linear_24_865)"/>
</g>
<g opacity="0.17">
<path d="M571 161.261L546 146.63L571 132L596 146.63L571 161.261Z" fill="#20B4FF"/>
<path d="M546 146.63V519.396L570.967 534L595.935 519.396V146.63L570.967 161.23L546 146.63Z" fill="url(#paint18_linear_24_865)"/>
</g>
<g opacity="0.17">
<path d="M924.5 161.261L899 146.63L924.5 132L950 146.63L924.5 161.261Z" fill="#20B4FF"/>
<path d="M899 146.63V519.396L924.467 534L949.934 519.396V146.63L924.467 161.23L899 146.63Z" fill="url(#paint19_linear_24_865)"/>
</g>
<defs>
<linearGradient id="paint0_linear_24_865" x1="950" y1="309.129" x2="999.94" y2="309.129" gradientUnits="userSpaceOnUse">
<stop stop-color="#613BFF"/>
<stop offset="1" stop-color="#1DBAFF"/>
</linearGradient>
<linearGradient id="paint1_linear_24_865" x1="242" y1="259.037" x2="292.938" y2="259.037" gradientUnits="userSpaceOnUse">
<stop stop-color="#613BFF"/>
<stop offset="1" stop-color="#1DBAFF"/>
</linearGradient>
<linearGradient id="paint2_linear_24_865" x1="596" y1="259.037" x2="646.938" y2="259.037" gradientUnits="userSpaceOnUse">
<stop stop-color="#613BFF"/>
<stop offset="1" stop-color="#1DBAFF"/>
</linearGradient>
<linearGradient id="paint3_linear_24_865" x1="293" y1="281.129" x2="342.94" y2="281.129" gradientUnits="userSpaceOnUse">
<stop stop-color="#613BFF"/>
<stop offset="1" stop-color="#1DBAFF"/>
</linearGradient>
<linearGradient id="paint4_linear_24_865" x1="647" y1="271.129" x2="696.94" y2="271.129" gradientUnits="userSpaceOnUse">
<stop stop-color="#613BFF"/>
<stop offset="1" stop-color="#1DBAFF"/>
</linearGradient>
<linearGradient id="paint5_linear_24_865" x1="-10" y1="137.129" x2="39.9397" y2="137.129" gradientUnits="userSpaceOnUse">
<stop stop-color="#613BFF"/>
<stop offset="1" stop-color="#1DBAFF"/>
</linearGradient>
<linearGradient id="paint6_linear_24_865" x1="343" y1="178.037" x2="393.938" y2="178.037" gradientUnits="userSpaceOnUse">
<stop stop-color="#613BFF"/>
<stop offset="1" stop-color="#1DBAFF"/>
</linearGradient>
<linearGradient id="paint7_linear_24_865" x1="697" y1="178.037" x2="747.938" y2="178.037" gradientUnits="userSpaceOnUse">
<stop stop-color="#613BFF"/>
<stop offset="1" stop-color="#1DBAFF"/>
</linearGradient>
<linearGradient id="paint8_linear_24_865" x1="40" y1="108.129" x2="90.9385" y2="108.129" gradientUnits="userSpaceOnUse">
<stop stop-color="#613BFF"/>
<stop offset="1" stop-color="#1DBAFF"/>
</linearGradient>
<linearGradient id="paint9_linear_24_865" x1="394" y1="108.129" x2="443.94" y2="108.129" gradientUnits="userSpaceOnUse">
<stop stop-color="#613BFF"/>
<stop offset="1" stop-color="#1DBAFF"/>
</linearGradient>
<linearGradient id="paint10_linear_24_865" x1="748" y1="108.129" x2="797.94" y2="108.129" gradientUnits="userSpaceOnUse">
<stop stop-color="#613BFF"/>
<stop offset="1" stop-color="#1DBAFF"/>
</linearGradient>
<linearGradient id="paint11_linear_24_865" x1="91" y1="167.037" x2="140.94" y2="167.037" gradientUnits="userSpaceOnUse">
<stop stop-color="#613BFF"/>
<stop offset="1" stop-color="#1DBAFF"/>
</linearGradient>
<linearGradient id="paint12_linear_24_865" x1="444" y1="167.037" x2="494.938" y2="167.037" gradientUnits="userSpaceOnUse">
<stop stop-color="#613BFF"/>
<stop offset="1" stop-color="#1DBAFF"/>
</linearGradient>
<linearGradient id="paint13_linear_24_865" x1="798" y1="167.037" x2="848.938" y2="167.037" gradientUnits="userSpaceOnUse">
<stop stop-color="#613BFF"/>
<stop offset="1" stop-color="#1DBAFF"/>
</linearGradient>
<linearGradient id="paint14_linear_24_865" x1="141" y1="237.129" x2="191.938" y2="237.129" gradientUnits="userSpaceOnUse">
<stop stop-color="#613BFF"/>
<stop offset="1" stop-color="#1DBAFF"/>
</linearGradient>
<linearGradient id="paint15_linear_24_865" x1="495" y1="237.129" x2="545.938" y2="237.129" gradientUnits="userSpaceOnUse">
<stop stop-color="#613BFF"/>
<stop offset="1" stop-color="#1DBAFF"/>
</linearGradient>
<linearGradient id="paint16_linear_24_865" x1="849" y1="237.129" x2="898.94" y2="237.129" gradientUnits="userSpaceOnUse">
<stop stop-color="#613BFF"/>
<stop offset="1" stop-color="#1DBAFF"/>
</linearGradient>
<linearGradient id="paint17_linear_24_865" x1="192" y1="159.037" x2="241.94" y2="159.037" gradientUnits="userSpaceOnUse">
<stop stop-color="#613BFF"/>
<stop offset="1" stop-color="#1DBAFF"/>
</linearGradient>
<linearGradient id="paint18_linear_24_865" x1="546" y1="169.037" x2="595.94" y2="169.037" gradientUnits="userSpaceOnUse">
<stop stop-color="#613BFF"/>
<stop offset="1" stop-color="#1DBAFF"/>
</linearGradient>
<linearGradient id="paint19_linear_24_865" x1="899" y1="169.037" x2="949.938" y2="169.037" gradientUnits="userSpaceOnUse">
<stop stop-color="#613BFF"/>
<stop offset="1" stop-color="#1DBAFF"/>
</linearGradient>
</defs>
</svg>
