<svg width="1920" height="210" viewBox="0 0 1920 210" fill="none" xmlns="http://www.w3.org/2000/svg">
<g opacity="0.17">
<path d="M25.5 214.334L0 199.667L25.5 185L51 199.667L25.5 214.334Z" fill="#20B4FF"/>
<path d="M0 199.667V573.359L25.4668 588L50.9336 573.359V199.667L25.4668 214.303L0 199.667Z" fill="url(#paint0_linear_24_111)"/>
</g>
<g opacity="0.17">
<path d="M1440 234.334L1415 219.667L1440 205L1465 219.667L1440 234.334Z" fill="#20B4FF"/>
</g>
<g opacity="0.17">
<path d="M1793.5 194.334L1768 179.667L1793.5 165L1819 179.667L1793.5 194.334Z" fill="#20B4FF"/>
<path d="M1768 179.667V553.359L1793.47 568L1818.93 553.359V179.667L1793.47 194.303L1768 179.667Z" fill="url(#paint1_linear_24_111)"/>
</g>
<g opacity="0.17">
<path d="M379 234.334L354 219.667L379 205L404 219.667L379 234.334Z" fill="#20B4FF"/>
</g>
<g opacity="0.17">
<path d="M732.5 184.261L707 169.63L732.5 155L758 169.63L732.5 184.261Z" fill="#20B4FF"/>
<path d="M707 169.63V542.396L732.467 557L757.934 542.396V169.63L732.467 184.23L707 169.63Z" fill="url(#paint2_linear_24_111)"/>
</g>
<g opacity="0.17">
<path d="M1086.5 184.261L1061 169.63L1086.5 155L1112 169.63L1086.5 184.261Z" fill="#20B4FF"/>
<path d="M1061 169.63V542.396L1086.47 557L1111.93 542.396V169.63L1086.47 184.23L1061 169.63Z" fill="url(#paint3_linear_24_111)"/>
</g>
<g opacity="0.17">
<path d="M76 145.334L51 130.667L76 116L101 130.667L76 145.334Z" fill="#20B4FF"/>
<path d="M51 130.667V504.359L75.9675 519L100.935 504.359V130.667L75.9675 145.303L51 130.667Z" fill="url(#paint4_linear_24_111)"/>
</g>
<g opacity="0.17">
<path d="M1490.5 145.334L1465 130.667L1490.5 116L1516 130.667L1490.5 145.334Z" fill="#20B4FF"/>
<path d="M1465 130.667V504.359L1490.47 519L1515.93 504.359V130.667L1490.47 145.303L1465 130.667Z" fill="url(#paint5_linear_24_111)"/>
</g>
<g opacity="0.17">
<path d="M1844 145.334L1819 130.667L1844 116L1869 130.667L1844 145.334Z" fill="#20B4FF"/>
<path d="M1819 130.667V504.359L1843.97 519L1868.93 504.359V130.667L1843.97 145.303L1819 130.667Z" fill="url(#paint6_linear_24_111)"/>
</g>
<g opacity="0.17">
<path d="M429.5 145.334L404 130.667L429.5 116L455 130.667L429.5 145.334Z" fill="#20B4FF"/>
<path d="M404 130.667V504.359L429.467 519L454.934 504.359V130.667L429.467 145.303L404 130.667Z" fill="url(#paint7_linear_24_111)"/>
</g>
<g opacity="0.17">
<path d="M783 206.334L758 191.667L783 177L808 191.667L783 206.334Z" fill="#20B4FF"/>
<path d="M758 191.667V565.359L782.967 580L807.935 565.359V191.667L782.967 206.303L758 191.667Z" fill="url(#paint8_linear_24_111)"/>
</g>
<g opacity="0.17">
<path d="M1137 196.334L1112 181.667L1137 167L1162 181.667L1137 196.334Z" fill="#20B4FF"/>
<path d="M1112 181.667V555.359L1136.97 570L1161.93 555.359V181.667L1136.97 196.303L1112 181.667Z" fill="url(#paint9_linear_24_111)"/>
</g>
<g opacity="0.17">
<path d="M126.5 62.3335L101 47.6668L126.5 33L152 47.6668L126.5 62.3335Z" fill="#20B4FF"/>
<path d="M101 47.6667V421.359L126.467 436L151.934 421.359V47.6667L126.467 62.3026L101 47.6667Z" fill="url(#paint10_linear_24_111)"/>
</g>
<g opacity="0.17">
<path d="M1541 62.3335L1516 47.6668L1541 33L1566 47.6668L1541 62.3335Z" fill="#20B4FF"/>
<path d="M1516 47.6667V421.359L1540.97 436L1565.93 421.359V47.6667L1540.97 62.3026L1516 47.6667Z" fill="url(#paint11_linear_24_111)"/>
</g>
<g opacity="0.17">
<path d="M1894.5 62.3335L1869 47.6668L1894.5 33L1920 47.6668L1894.5 62.3335Z" fill="#20B4FF"/>
<path d="M1869 47.6667V421.359L1894.47 436L1919.93 421.359V47.6667L1894.47 62.3026L1869 47.6667Z" fill="url(#paint12_linear_24_111)"/>
</g>
<g opacity="0.17">
<path d="M480 62.3335L455 47.6668L480 33L505 47.6668L480 62.3335Z" fill="#20B4FF"/>
<path d="M455 47.6667V421.359L479.967 436L504.935 421.359V47.6667L479.967 62.3026L455 47.6667Z" fill="url(#paint13_linear_24_111)"/>
</g>
<g opacity="0.17">
<path d="M833.5 103.261L808 88.6304L833.5 74L859 88.6304L833.5 103.261Z" fill="#20B4FF"/>
<path d="M808 88.6304V461.396L833.467 476L858.934 461.396V88.6304L833.467 103.23L808 88.6304Z" fill="url(#paint14_linear_24_111)"/>
</g>
<g opacity="0.17">
<path d="M1187.5 103.261L1162 88.6304L1187.5 74L1213 88.6304L1187.5 103.261Z" fill="#20B4FF"/>
<path d="M1162 88.6304V461.396L1187.47 476L1212.93 461.396V88.6304L1187.47 103.23L1162 88.6304Z" fill="url(#paint15_linear_24_111)"/>
</g>
<g opacity="0.17">
<path d="M177 33.3335L152 18.6668L177 4L202 18.6668L177 33.3335Z" fill="#20B4FF"/>
<path d="M152 18.6667V392.359L176.967 407L201.935 392.359V18.6667L176.967 33.3026L152 18.6667Z" fill="url(#paint16_linear_24_111)"/>
</g>
<g opacity="0.17">
<path d="M1591.5 33.3335L1566 18.6668L1591.5 4L1617 18.6668L1591.5 33.3335Z" fill="#20B4FF"/>
<path d="M1566 18.6667V392.359L1591.47 407L1616.93 392.359V18.6667L1591.47 33.3026L1566 18.6667Z" fill="url(#paint17_linear_24_111)"/>
</g>
<g opacity="0.17">
<path d="M530.5 33.3335L505 18.6668L530.5 4L556 18.6668L530.5 33.3335Z" fill="#20B4FF"/>
<path d="M505 18.6667V392.359L530.467 407L555.934 392.359V18.6667L530.467 33.3026L505 18.6667Z" fill="url(#paint18_linear_24_111)"/>
</g>
<g opacity="0.17">
<path d="M884 33.3335L859 18.6668L884 4L909 18.6668L884 33.3335Z" fill="#20B4FF"/>
<path d="M859 18.6667V392.359L883.967 407L908.935 392.359V18.6667L883.967 33.3026L859 18.6667Z" fill="url(#paint19_linear_24_111)"/>
</g>
<g opacity="0.17">
<path d="M1238 33.3335L1213 18.6668L1238 4L1263 18.6668L1238 33.3335Z" fill="#20B4FF"/>
<path d="M1213 18.6667V392.359L1237.97 407L1262.93 392.359V18.6667L1237.97 33.3026L1213 18.6667Z" fill="url(#paint20_linear_24_111)"/>
</g>
<g opacity="0.17">
<path d="M227.5 92.2607L202 77.6304L227.5 63L253 77.6304L227.5 92.2607Z" fill="#20B4FF"/>
<path d="M202 77.6304V450.396L227.467 465L252.934 450.396V77.6304L227.467 92.2299L202 77.6304Z" fill="url(#paint21_linear_24_111)"/>
</g>
<g opacity="0.17">
<path d="M1642 92.2607L1617 77.6304L1642 63L1667 77.6304L1642 92.2607Z" fill="#20B4FF"/>
<path d="M1617 77.6304V450.396L1641.97 465L1666.93 450.396V77.6304L1641.97 92.2299L1617 77.6304Z" fill="url(#paint22_linear_24_111)"/>
</g>
<g opacity="0.17">
<path d="M581 92.2607L556 77.6304L581 63L606 77.6304L581 92.2607Z" fill="#20B4FF"/>
<path d="M556 77.6304V450.396L580.967 465L605.935 450.396V77.6304L580.967 92.2299L556 77.6304Z" fill="url(#paint23_linear_24_111)"/>
</g>
<g opacity="0.17">
<path d="M934.5 92.2607L909 77.6304L934.5 63L960 77.6304L934.5 92.2607Z" fill="#20B4FF"/>
<path d="M909 77.6304V450.396L934.467 465L959.934 450.396V77.6304L934.467 92.2299L909 77.6304Z" fill="url(#paint24_linear_24_111)"/>
</g>
<g opacity="0.17">
<path d="M1288.5 92.2607L1263 77.6304L1288.5 63L1314 77.6304L1288.5 92.2607Z" fill="#20B4FF"/>
<path d="M1263 77.6304V450.396L1288.47 465L1313.93 450.396V77.6304L1288.47 92.2299L1263 77.6304Z" fill="url(#paint25_linear_24_111)"/>
</g>
<g opacity="0.17">
<path d="M278 162.334L253 147.667L278 133L303 147.667L278 162.334Z" fill="#20B4FF"/>
<path d="M253 147.667V521.359L277.967 536L302.935 521.359V147.667L277.967 162.303L253 147.667Z" fill="url(#paint26_linear_24_111)"/>
</g>
<g opacity="0.17">
<path d="M1692.5 162.334L1667 147.667L1692.5 133L1718 147.667L1692.5 162.334Z" fill="#20B4FF"/>
<path d="M1667 147.667V521.359L1692.47 536L1717.93 521.359V147.667L1692.47 162.303L1667 147.667Z" fill="url(#paint27_linear_24_111)"/>
</g>
<g opacity="0.17">
<path d="M631.5 162.334L606 147.667L631.5 133L657 147.667L631.5 162.334Z" fill="#20B4FF"/>
<path d="M606 147.667V521.359L631.467 536L656.934 521.359V147.667L631.467 162.303L606 147.667Z" fill="url(#paint28_linear_24_111)"/>
</g>
<g opacity="0.17">
<path d="M985.5 162.334L960 147.667L985.5 133L1011 147.667L985.5 162.334Z" fill="#20B4FF"/>
<path d="M960 147.667V521.359L985.467 536L1010.93 521.359V147.667L985.467 162.303L960 147.667Z" fill="url(#paint29_linear_24_111)"/>
</g>
<g opacity="0.17">
<path d="M1339 162.334L1314 147.667L1339 133L1364 147.667L1339 162.334Z" fill="#20B4FF"/>
<path d="M1314 147.667V521.359L1338.97 536L1363.93 521.359V147.667L1338.97 162.303L1314 147.667Z" fill="url(#paint30_linear_24_111)"/>
</g>
<g opacity="0.17">
<path d="M328.5 33.3335L303 18.6668L328.5 4L354 18.6668L328.5 33.3335Z" fill="#20B4FF"/>
<path d="M303 18.6667V392.359L328.467 407L353.934 392.359V18.6667L328.467 33.3026L303 18.6667Z" fill="url(#paint31_linear_24_111)"/>
</g>
<g opacity="0.17">
<path d="M1743 33.3335L1718 18.6668L1743 4L1768 18.6668L1743 33.3335Z" fill="#20B4FF"/>
<path d="M1718 18.6667V392.359L1742.97 407L1767.93 392.359V18.6667L1742.97 33.3026L1718 18.6667Z" fill="url(#paint32_linear_24_111)"/>
</g>
<g opacity="0.17">
<path d="M682 84.2607L657 69.6304L682 55L707 69.6304L682 84.2607Z" fill="#20B4FF"/>
<path d="M657 69.6304V442.396L681.967 457L706.935 442.396V69.6304L681.967 84.2299L657 69.6304Z" fill="url(#paint33_linear_24_111)"/>
</g>
<g opacity="0.17">
<path d="M1036 94.2607L1011 79.6304L1036 65L1061 79.6304L1036 94.2607Z" fill="#20B4FF"/>
<path d="M1011 79.6304V452.396L1035.97 467L1060.93 452.396V79.6304L1035.97 94.2299L1011 79.6304Z" fill="url(#paint34_linear_24_111)"/>
</g>
<g opacity="0.17">
<path d="M1389.5 94.2607L1364 79.6304L1389.5 65L1415 79.6304L1389.5 94.2607Z" fill="#20B4FF"/>
<path d="M1364 79.6304V452.396L1389.47 467L1414.93 452.396V79.6304L1389.47 94.2299L1364 79.6304Z" fill="url(#paint35_linear_24_111)"/>
</g>
<defs>
<linearGradient id="paint0_linear_24_111" x1="0" y1="222.129" x2="50.9385" y2="222.129" gradientUnits="userSpaceOnUse">
<stop stop-color="#613BFF"/>
<stop offset="1" stop-color="#1DBAFF"/>
</linearGradient>
<linearGradient id="paint1_linear_24_111" x1="1768" y1="202.129" x2="1818.94" y2="202.129" gradientUnits="userSpaceOnUse">
<stop stop-color="#613BFF"/>
<stop offset="1" stop-color="#1DBAFF"/>
</linearGradient>
<linearGradient id="paint2_linear_24_111" x1="707" y1="192.037" x2="757.938" y2="192.037" gradientUnits="userSpaceOnUse">
<stop stop-color="#613BFF"/>
<stop offset="1" stop-color="#1DBAFF"/>
</linearGradient>
<linearGradient id="paint3_linear_24_111" x1="1061" y1="192.037" x2="1111.94" y2="192.037" gradientUnits="userSpaceOnUse">
<stop stop-color="#613BFF"/>
<stop offset="1" stop-color="#1DBAFF"/>
</linearGradient>
<linearGradient id="paint4_linear_24_111" x1="51" y1="153.129" x2="100.94" y2="153.129" gradientUnits="userSpaceOnUse">
<stop stop-color="#613BFF"/>
<stop offset="1" stop-color="#1DBAFF"/>
</linearGradient>
<linearGradient id="paint5_linear_24_111" x1="1465" y1="153.129" x2="1515.94" y2="153.129" gradientUnits="userSpaceOnUse">
<stop stop-color="#613BFF"/>
<stop offset="1" stop-color="#1DBAFF"/>
</linearGradient>
<linearGradient id="paint6_linear_24_111" x1="1819" y1="153.129" x2="1868.94" y2="153.129" gradientUnits="userSpaceOnUse">
<stop stop-color="#613BFF"/>
<stop offset="1" stop-color="#1DBAFF"/>
</linearGradient>
<linearGradient id="paint7_linear_24_111" x1="404" y1="153.129" x2="454.938" y2="153.129" gradientUnits="userSpaceOnUse">
<stop stop-color="#613BFF"/>
<stop offset="1" stop-color="#1DBAFF"/>
</linearGradient>
<linearGradient id="paint8_linear_24_111" x1="758" y1="214.129" x2="807.94" y2="214.129" gradientUnits="userSpaceOnUse">
<stop stop-color="#613BFF"/>
<stop offset="1" stop-color="#1DBAFF"/>
</linearGradient>
<linearGradient id="paint9_linear_24_111" x1="1112" y1="204.129" x2="1161.94" y2="204.129" gradientUnits="userSpaceOnUse">
<stop stop-color="#613BFF"/>
<stop offset="1" stop-color="#1DBAFF"/>
</linearGradient>
<linearGradient id="paint10_linear_24_111" x1="101" y1="70.1287" x2="151.938" y2="70.1287" gradientUnits="userSpaceOnUse">
<stop stop-color="#613BFF"/>
<stop offset="1" stop-color="#1DBAFF"/>
</linearGradient>
<linearGradient id="paint11_linear_24_111" x1="1516" y1="70.1287" x2="1565.94" y2="70.1287" gradientUnits="userSpaceOnUse">
<stop stop-color="#613BFF"/>
<stop offset="1" stop-color="#1DBAFF"/>
</linearGradient>
<linearGradient id="paint12_linear_24_111" x1="1869" y1="70.1287" x2="1919.94" y2="70.1287" gradientUnits="userSpaceOnUse">
<stop stop-color="#613BFF"/>
<stop offset="1" stop-color="#1DBAFF"/>
</linearGradient>
<linearGradient id="paint13_linear_24_111" x1="455" y1="70.1287" x2="504.94" y2="70.1287" gradientUnits="userSpaceOnUse">
<stop stop-color="#613BFF"/>
<stop offset="1" stop-color="#1DBAFF"/>
</linearGradient>
<linearGradient id="paint14_linear_24_111" x1="808" y1="111.037" x2="858.938" y2="111.037" gradientUnits="userSpaceOnUse">
<stop stop-color="#613BFF"/>
<stop offset="1" stop-color="#1DBAFF"/>
</linearGradient>
<linearGradient id="paint15_linear_24_111" x1="1162" y1="111.037" x2="1212.94" y2="111.037" gradientUnits="userSpaceOnUse">
<stop stop-color="#613BFF"/>
<stop offset="1" stop-color="#1DBAFF"/>
</linearGradient>
<linearGradient id="paint16_linear_24_111" x1="152" y1="41.1287" x2="201.94" y2="41.1287" gradientUnits="userSpaceOnUse">
<stop stop-color="#613BFF"/>
<stop offset="1" stop-color="#1DBAFF"/>
</linearGradient>
<linearGradient id="paint17_linear_24_111" x1="1566" y1="41.1287" x2="1616.94" y2="41.1287" gradientUnits="userSpaceOnUse">
<stop stop-color="#613BFF"/>
<stop offset="1" stop-color="#1DBAFF"/>
</linearGradient>
<linearGradient id="paint18_linear_24_111" x1="505" y1="41.1287" x2="555.938" y2="41.1287" gradientUnits="userSpaceOnUse">
<stop stop-color="#613BFF"/>
<stop offset="1" stop-color="#1DBAFF"/>
</linearGradient>
<linearGradient id="paint19_linear_24_111" x1="859" y1="41.1287" x2="908.94" y2="41.1287" gradientUnits="userSpaceOnUse">
<stop stop-color="#613BFF"/>
<stop offset="1" stop-color="#1DBAFF"/>
</linearGradient>
<linearGradient id="paint20_linear_24_111" x1="1213" y1="41.1287" x2="1262.94" y2="41.1287" gradientUnits="userSpaceOnUse">
<stop stop-color="#613BFF"/>
<stop offset="1" stop-color="#1DBAFF"/>
</linearGradient>
<linearGradient id="paint21_linear_24_111" x1="202" y1="100.037" x2="252.938" y2="100.037" gradientUnits="userSpaceOnUse">
<stop stop-color="#613BFF"/>
<stop offset="1" stop-color="#1DBAFF"/>
</linearGradient>
<linearGradient id="paint22_linear_24_111" x1="1617" y1="100.037" x2="1666.94" y2="100.037" gradientUnits="userSpaceOnUse">
<stop stop-color="#613BFF"/>
<stop offset="1" stop-color="#1DBAFF"/>
</linearGradient>
<linearGradient id="paint23_linear_24_111" x1="556" y1="100.037" x2="605.94" y2="100.037" gradientUnits="userSpaceOnUse">
<stop stop-color="#613BFF"/>
<stop offset="1" stop-color="#1DBAFF"/>
</linearGradient>
<linearGradient id="paint24_linear_24_111" x1="909" y1="100.037" x2="959.938" y2="100.037" gradientUnits="userSpaceOnUse">
<stop stop-color="#613BFF"/>
<stop offset="1" stop-color="#1DBAFF"/>
</linearGradient>
<linearGradient id="paint25_linear_24_111" x1="1263" y1="100.037" x2="1313.94" y2="100.037" gradientUnits="userSpaceOnUse">
<stop stop-color="#613BFF"/>
<stop offset="1" stop-color="#1DBAFF"/>
</linearGradient>
<linearGradient id="paint26_linear_24_111" x1="253" y1="170.129" x2="302.94" y2="170.129" gradientUnits="userSpaceOnUse">
<stop stop-color="#613BFF"/>
<stop offset="1" stop-color="#1DBAFF"/>
</linearGradient>
<linearGradient id="paint27_linear_24_111" x1="1667" y1="170.129" x2="1717.94" y2="170.129" gradientUnits="userSpaceOnUse">
<stop stop-color="#613BFF"/>
<stop offset="1" stop-color="#1DBAFF"/>
</linearGradient>
<linearGradient id="paint28_linear_24_111" x1="606" y1="170.129" x2="656.938" y2="170.129" gradientUnits="userSpaceOnUse">
<stop stop-color="#613BFF"/>
<stop offset="1" stop-color="#1DBAFF"/>
</linearGradient>
<linearGradient id="paint29_linear_24_111" x1="960" y1="170.129" x2="1010.94" y2="170.129" gradientUnits="userSpaceOnUse">
<stop stop-color="#613BFF"/>
<stop offset="1" stop-color="#1DBAFF"/>
</linearGradient>
<linearGradient id="paint30_linear_24_111" x1="1314" y1="170.129" x2="1363.94" y2="170.129" gradientUnits="userSpaceOnUse">
<stop stop-color="#613BFF"/>
<stop offset="1" stop-color="#1DBAFF"/>
</linearGradient>
<linearGradient id="paint31_linear_24_111" x1="303" y1="41.1287" x2="353.938" y2="41.1287" gradientUnits="userSpaceOnUse">
<stop stop-color="#613BFF"/>
<stop offset="1" stop-color="#1DBAFF"/>
</linearGradient>
<linearGradient id="paint32_linear_24_111" x1="1718" y1="41.1287" x2="1767.94" y2="41.1287" gradientUnits="userSpaceOnUse">
<stop stop-color="#613BFF"/>
<stop offset="1" stop-color="#1DBAFF"/>
</linearGradient>
<linearGradient id="paint33_linear_24_111" x1="657" y1="92.0366" x2="706.94" y2="92.0366" gradientUnits="userSpaceOnUse">
<stop stop-color="#613BFF"/>
<stop offset="1" stop-color="#1DBAFF"/>
</linearGradient>
<linearGradient id="paint34_linear_24_111" x1="1011" y1="102.037" x2="1060.94" y2="102.037" gradientUnits="userSpaceOnUse">
<stop stop-color="#613BFF"/>
<stop offset="1" stop-color="#1DBAFF"/>
</linearGradient>
<linearGradient id="paint35_linear_24_111" x1="1364" y1="102.037" x2="1414.94" y2="102.037" gradientUnits="userSpaceOnUse">
<stop stop-color="#613BFF"/>
<stop offset="1" stop-color="#1DBAFF"/>
</linearGradient>
</defs>
</svg>
