<svg width="60" height="87" viewBox="0 0 60 87" fill="none" xmlns="http://www.w3.org/2000/svg">
<path d="M4.09487 81.3541C4.64275 81.3383 5.18859 81.4276 5.70293 81.617C6.08551 81.7601 6.41861 82.0107 6.66216 82.3387C6.87729 82.655 6.98871 83.0304 6.98098 83.4128C7.00524 83.7571 6.93809 84.1016 6.78633 84.4116C6.63458 84.7216 6.40361 84.9859 6.11682 85.1778C5.53699 85.5508 4.70826 85.7372 3.63064 85.7372C3.42089 85.7372 3.19716 85.7372 2.95386 85.7177C2.70726 85.7057 2.46163 85.6786 2.21835 85.6365C1.98837 85.5984 1.76058 85.548 1.53598 85.4855C1.36499 85.4511 1.21126 85.3584 1.10107 85.2232C0.990879 85.088 0.931084 84.9187 0.931908 84.7443V78.5905C0.928311 78.5255 0.937575 78.4604 0.95917 78.3989C0.980765 78.3375 1.01427 78.2809 1.05776 78.2325C1.15564 78.1369 1.2773 78.0693 1.41013 78.0367C1.7289 77.9389 2.05691 77.8742 2.38894 77.8437C2.77268 77.8046 3.15822 77.7859 3.54394 77.7877C4.54699 77.7877 5.32445 77.963 5.87632 78.3136C6.14797 78.4813 6.36932 78.7193 6.51699 79.0023C6.66466 79.2854 6.73317 79.6031 6.7153 79.9219C6.72056 80.2793 6.60966 80.6288 6.39928 80.9177C6.15787 81.2323 5.82908 81.4688 5.45403 81.5974C4.94356 81.7738 4.40539 81.8562 3.86555 81.8408L3.76487 81.0884C4.13605 81.1167 4.50585 81.0181 4.8136 80.8086C4.92888 80.7116 5.01998 80.589 5.07969 80.4507C5.13939 80.3123 5.16606 80.1619 5.15759 80.0115C5.16417 79.8617 5.13055 79.713 5.06023 79.5807C4.9899 79.4484 4.88543 79.3373 4.75767 79.259C4.39294 79.0588 3.97873 78.9666 3.56352 78.9933C3.35377 78.9933 3.15521 78.9933 2.96225 79.0185C2.76928 79.0436 2.60148 79.0576 2.45886 79.0828V84.417C2.65189 84.4557 2.84707 84.4828 3.04335 84.4981C3.27267 84.5205 3.4964 84.5317 3.71454 84.5317C4.14935 84.5592 4.58301 84.4622 4.96462 84.2519C5.09792 84.1538 5.20713 84.0265 5.28397 83.8799C5.36081 83.7332 5.40326 83.571 5.40811 83.4055C5.41296 83.24 5.38008 83.0755 5.31197 82.9246C5.24385 82.7737 5.14228 82.6403 5.01496 82.5345C4.66585 82.3221 4.25905 82.2243 3.85157 82.2548L4.09487 81.3541ZM4.99818 82.2324H1.92191V81.0912H4.99818V82.2324Z" fill="white"/>
<path d="M8.46606 83.0491V77.4268L8.74573 77.3625C8.88369 77.3338 9.0243 77.3198 9.16522 77.3205C9.38646 77.3023 9.60755 77.3574 9.79445 77.4772C9.86709 77.5468 9.92277 77.6322 9.95719 77.7268C9.99162 77.8214 10.0039 77.9226 9.99301 78.0226V83.1191L8.46606 83.0491ZM9.99301 82.3554V85.5582C9.90215 85.5894 9.8085 85.6119 9.71335 85.6253C9.57938 85.6478 9.44366 85.6581 9.30784 85.6561C9.08968 85.6719 8.87194 85.6201 8.6842 85.5078C8.60926 85.4408 8.5514 85.3569 8.5154 85.263C8.47941 85.1691 8.46633 85.0679 8.47725 84.968V82.2715L9.99301 82.3554Z" fill="white"/>
<path d="M13.9586 79.4715C14.6442 79.4357 15.3236 79.6178 15.8994 79.9917C16.3805 80.3386 16.621 80.8868 16.621 81.6309V84.5315C16.6315 84.7007 16.5798 84.8678 16.4755 85.0015C16.3696 85.123 16.245 85.2268 16.1064 85.3091C15.8273 85.4597 15.5291 85.5717 15.2199 85.642C14.8229 85.7339 14.4164 85.778 14.0089 85.7735C13.3228 85.8099 12.6414 85.6414 12.0513 85.2896C11.8178 85.1325 11.6292 84.9174 11.5041 84.6653C11.3791 84.4131 11.3219 84.1328 11.3382 83.8518C11.3241 83.612 11.3647 83.3721 11.4567 83.1502C11.5487 82.9283 11.6899 82.7302 11.8695 82.5707C12.3181 82.2329 12.858 82.038 13.4188 82.0113L15.1388 81.8351V81.6085C15.1504 81.4655 15.1243 81.322 15.0629 81.1924C15.0016 81.0628 14.9071 80.9516 14.7892 80.87C14.4909 80.7033 14.1515 80.6248 13.8104 80.6435C13.4883 80.6427 13.1676 80.6851 12.8567 80.7693C12.5688 80.8441 12.288 80.9443 12.0177 81.0686C11.9259 80.992 11.8516 80.8967 11.7996 80.7889C11.7367 80.6801 11.7039 80.5566 11.7045 80.4309C11.7042 80.2838 11.7518 80.1407 11.8402 80.0231C11.9285 79.9055 12.0526 79.8199 12.1939 79.7792C12.4546 79.6627 12.729 79.58 13.0105 79.533C13.3242 79.4855 13.6414 79.4649 13.9586 79.4715ZM14.0089 84.6182C14.2417 84.621 14.4739 84.5938 14.6997 84.5371C14.857 84.4987 15.0091 84.4414 15.1527 84.3665V82.9148L13.8859 83.0378C13.6069 83.0435 13.3342 83.1216 13.0944 83.2644C13.0029 83.325 12.9289 83.4086 12.8798 83.5067C12.8307 83.6049 12.8083 83.7143 12.8148 83.8238C12.8105 83.9363 12.8337 84.048 12.8825 84.1494C12.9312 84.2508 13.004 84.3388 13.0944 84.4057C13.3683 84.5736 13.6891 84.6482 14.0089 84.6182Z" fill="white"/>
<path d="M21.2383 80.677C21.0033 80.6718 20.7697 80.7136 20.5512 80.8001C20.3326 80.8866 20.1336 81.0159 19.9658 81.1804C19.7829 81.3735 19.6422 81.6025 19.5527 81.853C19.4631 82.1034 19.4267 82.3697 19.4456 82.635C19.4264 82.894 19.4609 83.1542 19.547 83.3992C19.6332 83.6442 19.7691 83.8688 19.9462 84.0587C20.117 84.2203 20.3182 84.3463 20.5381 84.4293C20.758 84.5124 20.9922 84.5509 21.2271 84.5426C21.4959 84.5494 21.7638 84.5087 22.0185 84.4224C22.2147 84.35 22.4022 84.2562 22.5778 84.1426C22.6883 84.2169 22.7833 84.3119 22.8575 84.4224C22.927 84.5306 22.9621 84.6574 22.9582 84.786C22.9494 84.9388 22.8967 85.0858 22.8065 85.2094C22.7162 85.3329 22.5921 85.4278 22.4492 85.4825C22.028 85.6831 21.5646 85.7791 21.0984 85.7622C20.5204 85.7749 19.9469 85.6573 19.4205 85.4182C18.9467 85.1946 18.5554 84.8277 18.3018 84.3692C18.0222 83.8353 17.8882 83.2372 17.9131 82.635C17.8907 82.0211 18.0388 81.4131 18.341 80.8784C18.6099 80.4207 19.0091 80.0536 19.4876 79.8238C19.9749 79.5885 20.5097 79.4679 21.0509 79.4714C21.5145 79.4507 21.9754 79.552 22.3877 79.7651C22.5296 79.8253 22.6522 79.9235 22.7419 80.0488C22.8317 80.1741 22.8853 80.3218 22.8967 80.4756C22.8978 80.5977 22.8628 80.7174 22.796 80.8196C22.7325 80.9223 22.6476 81.0101 22.5471 81.077C22.3703 80.9654 22.183 80.8717 21.9878 80.7972C21.7468 80.7141 21.4932 80.6734 21.2383 80.677Z" fill="white"/>
<path d="M24.3005 83.0128V77.4184C24.3592 77.4017 24.4515 77.3793 24.5802 77.3541C24.7166 77.3284 24.8552 77.3162 24.994 77.3177C25.2127 77.2984 25.4315 77.3536 25.6149 77.4744C25.687 77.5443 25.7422 77.6298 25.7761 77.7244C25.8101 77.8189 25.8219 77.92 25.8107 78.0198V83.0911L24.3005 83.0128ZM25.8079 82.3219V85.561C25.7169 85.5919 25.6233 85.6144 25.5282 85.6281C25.397 85.6502 25.2641 85.6604 25.1311 85.6589C24.9119 85.6762 24.6928 85.6243 24.5046 85.5106C24.4311 85.4428 24.3745 85.3585 24.3395 85.2647C24.3046 85.171 24.2921 85.0703 24.3033 84.9708V82.2463L25.8079 82.3219ZM25.4443 82.3722L28.2913 79.5583C28.5525 79.5512 28.8095 79.6255 29.0268 79.7709C29.1125 79.8266 29.1829 79.9029 29.2317 79.9928C29.2806 80.0826 29.3062 80.1833 29.3064 80.2855C29.307 80.4588 29.2455 80.6265 29.133 80.7583C28.9664 80.9406 28.7859 81.1099 28.5933 81.2645L26.5098 83.0855L25.4443 82.3722ZM26.6357 82.0338L29.5861 84.7946C29.5759 85.0308 29.4895 85.2575 29.34 85.4407C29.2654 85.5197 29.1745 85.5815 29.0735 85.6216C28.9725 85.6617 28.864 85.6792 28.7555 85.6729C28.5775 85.6732 28.4028 85.6259 28.2493 85.5358C28.064 85.4172 27.8996 85.2688 27.7627 85.0966L25.4779 82.596L26.6357 82.0338Z" fill="white"/>
<path d="M33.6133 80.677C33.3783 80.6718 33.1447 80.7136 32.9262 80.8001C32.7076 80.8866 32.5086 81.0159 32.3408 81.1804C32.157 81.373 32.0155 81.6019 31.9254 81.8524C31.8354 82.1029 31.7987 82.3695 31.8178 82.635C31.7991 82.8942 31.8341 83.1545 31.9208 83.3995C32.0074 83.6445 32.1437 83.8689 32.3212 84.0587C32.492 84.2203 32.6932 84.3463 32.9131 84.4293C33.1329 84.5124 33.3672 84.5509 33.6021 84.5426C33.87 84.5494 34.137 84.5087 34.3907 84.4224C34.5868 84.3498 34.7743 84.256 34.95 84.1426C35.0613 84.2159 35.1565 84.3111 35.2297 84.4224C35.2992 84.5306 35.3342 84.6574 35.3304 84.786C35.3222 84.9386 35.2701 85.0855 35.1802 85.2091C35.0904 85.3327 34.9668 85.4276 34.8242 85.4825C34.4029 85.6828 33.9396 85.7788 33.4734 85.7622C32.8954 85.7749 32.3219 85.6573 31.7955 85.4182C31.3226 85.1934 30.9315 84.8267 30.6768 84.3692C30.3956 83.8356 30.2587 83.2378 30.2797 82.635C30.2581 82.0216 30.4052 81.414 30.7048 80.8784C30.9757 80.4213 31.3755 80.0544 31.8542 79.8238C32.3449 79.5868 32.8837 79.4662 33.4287 79.4714C33.8923 79.4507 34.3532 79.552 34.7655 79.7651C34.9074 79.8253 35.0299 79.9235 35.1197 80.0488C35.2095 80.1741 35.263 80.3218 35.2744 80.4756C35.2756 80.5977 35.2406 80.7174 35.1738 80.8196C35.11 80.923 35.024 81.0109 34.9221 81.077C34.7454 80.9653 34.5581 80.8715 34.3627 80.7972C34.1217 80.7143 33.8681 80.6736 33.6133 80.677Z" fill="white"/>
<path d="M36.6754 83.049V77.4267C36.7341 77.41 36.8264 77.3876 36.955 77.3624C37.0915 77.3367 37.2301 77.3245 37.3689 77.326C37.5876 77.3067 37.8064 77.3619 37.9898 77.4827C38.0609 77.5532 38.1152 77.6389 38.1486 77.7333C38.182 77.8278 38.1937 77.9286 38.1827 78.0281V83.063L36.6754 83.049ZM38.1799 82.2714V85.5609C38.0891 85.5924 37.9955 85.6149 37.9003 85.628C37.7691 85.6501 37.6362 85.6604 37.5032 85.6588C37.284 85.6765 37.0648 85.6246 36.8767 85.5105C36.8031 85.4427 36.7466 85.3584 36.7116 85.2646C36.6766 85.1709 36.6642 85.0702 36.6754 84.9707V82.2714H38.1799ZM40.6158 83.049V81.9302C40.6311 81.7561 40.6078 81.5808 40.5473 81.4168C40.4869 81.2529 40.3909 81.1044 40.2662 80.9819C40.0174 80.7812 39.7047 80.677 39.3853 80.6882C39.1087 80.6851 38.8348 80.7424 38.5826 80.8561C38.3616 80.9561 38.1547 81.085 37.9674 81.2393L37.8667 80.0225C38.1025 79.876 38.3527 79.7541 38.6134 79.6589C38.9409 79.5379 39.2879 79.4782 39.637 79.4827C40.2914 79.4491 40.9351 79.6593 41.4436 80.0729C41.8966 80.4663 42.1232 81.0603 42.1232 81.8546V83.0602L40.6158 83.049ZM42.1232 82.2826V85.5609C42.0329 85.594 41.939 85.6166 41.8435 85.628C41.7104 85.65 41.5757 85.6603 41.4408 85.6588C41.2197 85.6781 40.9982 85.6261 40.8087 85.5105C40.7365 85.4419 40.6813 85.3574 40.6473 85.2637C40.6133 85.17 40.6016 85.0697 40.613 84.9707V82.2826H42.1232Z" fill="white"/>
<path d="M46.0131 79.4716C46.6979 79.4362 47.3762 79.6183 47.9512 79.9919C48.4322 80.3387 48.6727 80.887 48.6727 81.631V84.5317C48.6828 84.7003 48.6322 84.867 48.5301 85.0016C48.4225 85.1225 48.2971 85.2262 48.1581 85.3093C47.8798 85.4594 47.5826 85.5714 47.2744 85.6422C46.8774 85.7339 46.4709 85.778 46.0635 85.7736C45.3774 85.8103 44.6959 85.6419 44.1059 85.2897C43.8716 85.1332 43.6823 84.9182 43.5568 84.6661C43.4312 84.4139 43.3737 84.1332 43.3899 83.852C43.3758 83.6119 43.4166 83.3717 43.5092 83.1498C43.6017 82.9278 43.7436 82.7298 43.9241 82.5709C44.3727 82.2331 44.9125 82.0381 45.4734 82.0114L47.1933 81.8352V81.6086C47.2053 81.4654 47.179 81.3215 47.117 81.1917C47.0551 81.062 46.9598 80.951 46.8409 80.8702C46.5428 80.7032 46.2033 80.6246 45.8621 80.6436C45.5401 80.6432 45.2194 80.6855 44.9085 80.7695C44.6203 80.8436 44.3395 80.9438 44.0695 81.0688C43.9779 80.9913 43.9027 80.8962 43.8486 80.7891C43.7877 80.6796 43.7559 80.5563 43.7563 80.431C43.756 80.284 43.8036 80.1408 43.8919 80.0232C43.9802 79.9057 44.1044 79.82 44.2457 79.7793C44.5053 79.6627 44.7788 79.58 45.0595 79.5332C45.375 79.4854 45.6941 79.4648 46.0131 79.4716ZM46.0635 84.6184C46.2963 84.6212 46.5284 84.5939 46.7543 84.5373C46.9105 84.4984 47.0617 84.4411 47.2045 84.3667V82.9149L45.9376 83.038C45.6587 83.0437 45.3859 83.1218 45.1462 83.2646C45.0547 83.3251 44.9807 83.4087 44.9316 83.5069C44.8825 83.6051 44.8601 83.7144 44.8665 83.824C44.8625 83.9364 44.8859 84.0481 44.9346 84.1494C44.9833 84.2508 45.0559 84.3388 45.1462 84.4058C45.4205 84.5751 45.7427 84.6498 46.0635 84.6184Z" fill="white"/>
<path d="M50.1916 77.88C50.189 77.7665 50.2101 77.6537 50.2534 77.5487C50.2967 77.4437 50.3614 77.3489 50.4433 77.2702C50.5263 77.19 50.6244 77.1272 50.732 77.0854C50.8396 77.0436 50.9544 77.0237 51.0698 77.0269C51.1875 77.0212 51.3052 77.0398 51.4154 77.0817C51.5256 77.1235 51.6259 77.1878 51.7102 77.2702C51.8314 77.3925 51.9131 77.5483 51.9446 77.7176C51.9762 77.8869 51.9561 78.0617 51.8871 78.2194C51.8181 78.3771 51.7032 78.5105 51.5574 78.6021C51.4117 78.6937 51.2418 78.7393 51.0698 78.7332C50.9536 78.7369 50.8379 78.7164 50.7301 78.6731C50.6223 78.6298 50.5246 78.5645 50.4433 78.4814C50.3622 78.4039 50.2979 78.3105 50.2546 78.207C50.2113 78.1035 50.1899 77.9922 50.1916 77.88ZM50.3175 83.052V79.6954C50.3846 79.6786 50.4825 79.659 50.5971 79.6394C50.7301 79.6165 50.8649 79.6052 50.9998 79.6059C51.2194 79.5884 51.4388 79.6413 51.6263 79.7569C51.7016 79.8276 51.7591 79.9152 51.7941 80.0125C51.8291 80.1097 51.8406 80.2138 51.8276 80.3164V83.052H50.3175ZM51.836 82.2744V85.5638C51.7452 85.5951 51.6515 85.6176 51.5564 85.631C51.4215 85.6535 51.2848 85.6638 51.1481 85.6617C50.9308 85.6773 50.714 85.6255 50.5272 85.5135C50.4523 85.4464 50.3944 85.3625 50.3584 85.2686C50.3224 85.1747 50.3093 85.0736 50.3203 84.9736V82.2716L51.836 82.2744Z" fill="white"/>
<path d="M58.9786 82.9371H57.46V81.7679C57.4742 81.6128 57.4525 81.4564 57.3968 81.3109C57.341 81.1655 57.2526 81.0347 57.1384 80.9288C56.893 80.7483 56.5923 80.6592 56.2882 80.677C56.0504 80.6737 55.8136 80.7076 55.5863 80.7777C55.3918 80.8366 55.2043 80.9163 55.027 81.0155V82.9371H53.5196V80.9148C53.5129 80.7436 53.5546 80.5739 53.6398 80.4253C53.7407 80.2786 53.8712 80.1547 54.023 80.0617C54.3211 79.8782 54.6442 79.7388 54.9822 79.6477C55.4087 79.5263 55.8504 79.4669 56.2938 79.4715C56.9974 79.4271 57.695 79.6245 58.271 80.0309C58.5132 80.2349 58.7037 80.4933 58.8272 80.7849C58.9506 81.0766 59.0034 81.3933 58.9814 81.7092L58.9786 82.9371ZM55.0242 82.3078V85.5609C54.9332 85.5918 54.8396 85.6143 54.7445 85.628C54.6143 85.6502 54.4823 85.6605 54.3502 85.6588C54.1301 85.6765 53.91 85.6246 53.721 85.5105C53.6474 85.4427 53.5908 85.3584 53.5558 85.2646C53.5209 85.1708 53.5084 85.0701 53.5196 84.9707V82.3078H55.0242ZM58.9786 82.3078V85.5609C58.8876 85.5918 58.794 85.6143 58.6989 85.628C58.5668 85.6501 58.433 85.6604 58.299 85.6588C58.0789 85.6765 57.8588 85.6246 57.6698 85.5105C57.5972 85.442 57.5416 85.3576 57.5071 85.2639C57.4727 85.1703 57.4604 85.0699 57.4712 84.9707V82.3078H58.9786Z" fill="white"/>
<path d="M44.5368 13.4724L37.6348 17.4668L44.534 21.4499L51.4444 17.4612L44.5368 13.4724Z" fill="white"/>
<path d="M14.9906 13.4724L8.08301 17.4612L14.9934 21.4499L21.8927 17.4668L14.9906 13.4724Z" fill="white"/>
<path d="M0.333496 35.2876V51.4832L14.4284 59.6229V43.3182L0.333496 35.2876Z" fill="white"/>
<path d="M29.7622 35.1785L15.6672 43.3182V60.3361L29.7622 68.4759L43.8543 60.3389V43.3182L29.7622 35.1785Z" fill="white"/>
<path d="M29.7454 17.4697L15.0828 8.98028L29.7622 0.504883L44.4416 8.98308L29.7817 17.4697" fill="white"/>
<path d="M59.1882 35.156L45.0933 43.3153V59.6228L59.1882 51.483V35.156Z" fill="white"/>
<path d="M29.7622 17.4697V33.7492L15.0465 42.2442L0.333496 33.8611V17.4697L0.358666 17.4837L15.0409 25.9619L15.0465 25.9647L29.7538 17.4753L29.7622 17.4697Z" fill="white"/>
<path d="M59.1881 17.4697V33.724L44.4752 42.2442L29.7622 33.7492V17.4697L29.7734 17.4753L44.4752 25.9647L44.4836 25.9591L59.163 17.4837L59.1881 17.4697Z" fill="white"/>
<path d="M0.357336 17.4829L0.333496 17.4962V17.4697L0.357336 17.4829Z" fill="white"/>
<path d="M59.1869 17.4697V17.4962L59.1631 17.4829L59.1869 17.4697Z" fill="white"/>
<path d="M43.8208 43.3181V60.3109L29.7287 68.4478L15.6338 60.3109V43.3181L29.7287 51.4551L43.8208 43.3181Z" fill="white"/>
</svg>
