<svg width="31" height="35" viewBox="0 0 31 35" fill="none" xmlns="http://www.w3.org/2000/svg">
<g clip-path="url(#clip0_111_353)">
<path d="M23.0106 6.73621L19.4446 8.73338L23.0092 10.725L26.5796 8.73058L23.0106 6.73621Z" fill="white"/>
<path d="M7.74521 6.73621L4.17627 8.73058L7.74665 10.725L11.3113 8.73338L7.74521 6.73621Z" fill="white"/>
<path d="M0.172363 17.6438V25.7416L7.45474 29.8114V21.6591L0.172363 17.6438Z" fill="white"/>
<path d="M15.3772 17.5892L8.09485 21.6591V30.1681L15.3772 34.2379L22.6581 30.1695V21.6591L15.3772 17.5892Z" fill="white"/>
<path d="M15.3685 8.73483L7.79285 4.49014L15.3772 0.252441L22.9616 4.49154L15.3873 8.73483" fill="white"/>
<path d="M30.5806 17.578L23.2982 21.6577V29.8114L30.5806 25.7415V17.578Z" fill="white"/>
<path d="M15.3772 8.73486V16.8746L7.77406 21.1221L0.172363 16.9305V8.73486L0.185368 8.74186L7.77117 12.981L7.77406 12.9824L15.3729 8.73766L15.3772 8.73486Z" fill="white"/>
<path d="M30.5806 8.73486V16.862L22.9789 21.1221L15.3772 16.8746V8.73486L15.383 8.73766L22.9789 12.9824L22.9832 12.9796L30.5676 8.74186L30.5806 8.73486Z" fill="white"/>
<path d="M0.185475 8.74185L0.172363 8.74883V8.73486L0.185475 8.74185Z" fill="white"/>
<path d="M30.5807 8.73486V8.74883L30.5676 8.74185L30.5807 8.73486Z" fill="white"/>
<path d="M22.6408 21.6591V30.1554L15.3599 34.2239L8.07751 30.1554V21.6591L15.3599 25.7275L22.6408 21.6591Z" fill="white"/>
</g>
<defs>
<clipPath id="clip0_111_353">
<rect width="31" height="35" fill="white"/>
</clipPath>
</defs>
</svg>
