<svg width="125" height="182" viewBox="0 0 125 182" fill="none" xmlns="http://www.w3.org/2000/svg">
<path d="M8.05028 171.663C9.21245 171.629 10.3703 171.819 11.4613 172.22C12.2728 172.524 12.9794 173.056 13.496 173.751C13.9524 174.422 14.1887 175.218 14.1723 176.029C14.2238 176.759 14.0813 177.49 13.7594 178.147C13.4375 178.805 12.9476 179.365 12.3393 179.772C11.1093 180.563 9.35141 180.959 7.06554 180.959C6.62062 180.959 6.14604 180.959 5.62994 180.917C5.10686 180.892 4.58582 180.835 4.06977 180.745C3.58193 180.664 3.09876 180.558 2.62231 180.425C2.25962 180.352 1.93352 180.156 1.69978 179.869C1.46605 179.582 1.33921 179.223 1.34096 178.853V165.802C1.33333 165.664 1.35298 165.526 1.39879 165.395C1.44459 165.265 1.51566 165.145 1.60791 165.042C1.81554 164.84 2.07362 164.696 2.35537 164.627C3.03155 164.42 3.72732 164.282 4.43164 164.218C5.24563 164.135 6.06345 164.095 6.88164 164.099C9.00932 164.099 10.6585 164.471 11.8291 165.214C12.4053 165.57 12.8749 166.075 13.1881 166.675C13.5013 167.275 13.6467 167.949 13.6088 168.625C13.6199 169.383 13.3847 170.125 12.9384 170.737C12.4263 171.405 11.7289 171.906 10.9333 172.179C9.85052 172.553 8.70895 172.728 7.56384 172.695L7.35028 171.099C8.13762 171.159 8.92204 170.95 9.57486 170.506C9.81939 170.3 10.0126 170.04 10.1393 169.747C10.2659 169.453 10.3225 169.134 10.3045 168.815C10.3185 168.498 10.2472 168.182 10.098 167.902C9.94882 167.621 9.72722 167.385 9.45621 167.219C8.68255 166.795 7.80391 166.599 6.92316 166.656C6.47825 166.656 6.05706 166.656 5.64774 166.709C5.23842 166.763 4.88248 166.792 4.57994 166.846V178.159C4.9894 178.241 5.40342 178.298 5.81977 178.331C6.30621 178.378 6.78079 178.402 7.2435 178.402C8.16583 178.461 9.08571 178.255 9.8952 177.809C10.178 177.601 10.4096 177.331 10.5726 177.02C10.7356 176.709 10.8256 176.365 10.8359 176.014C10.8462 175.663 10.7765 175.314 10.632 174.994C10.4875 174.674 10.2721 174.391 10.002 174.166C9.26145 173.716 8.39853 173.508 7.53418 173.573L8.05028 171.663ZM9.96638 173.526H3.44096V171.105H9.96638V173.526Z" fill="white"/>
<path d="M17.3223 175.258V163.334L17.9155 163.197C18.2081 163.136 18.5064 163.107 18.8053 163.108C19.2746 163.07 19.7436 163.186 20.1401 163.44C20.2941 163.588 20.4122 163.769 20.4853 163.97C20.5583 164.17 20.5843 164.385 20.5612 164.597V175.406L17.3223 175.258ZM20.5612 173.787V180.579C20.3685 180.646 20.1699 180.693 19.968 180.722C19.6839 180.769 19.396 180.791 19.1079 180.787C18.6451 180.82 18.1832 180.711 17.785 180.472C17.626 180.33 17.5033 180.152 17.4269 179.953C17.3506 179.754 17.3228 179.54 17.346 179.328V173.609L20.5612 173.787Z" fill="white"/>
<path d="M28.9729 167.67C30.4273 167.594 31.8684 167.981 33.0899 168.774C34.1102 169.509 34.6204 170.672 34.6204 172.25V178.402C34.6427 178.761 34.533 179.115 34.3119 179.399C34.0872 179.656 33.8228 179.877 33.5289 180.051C32.9368 180.371 32.3042 180.608 31.6483 180.757C30.8063 180.952 29.944 181.046 29.0797 181.036C27.6244 181.113 26.179 180.756 24.9272 180.01C24.4318 179.677 24.0318 179.22 23.7665 178.686C23.5013 178.151 23.3799 177.556 23.4144 176.96C23.3847 176.452 23.4706 175.943 23.6659 175.472C23.8611 175.002 24.1605 174.582 24.5416 174.243C25.4931 173.527 26.6383 173.114 27.828 173.057L31.4763 172.683V172.203C31.5011 171.899 31.4456 171.595 31.3154 171.32C31.1853 171.045 30.985 170.809 30.7348 170.637C30.1022 170.283 29.3821 170.116 28.6585 170.156C27.9753 170.154 27.295 170.244 26.6356 170.423C26.0248 170.582 25.4293 170.794 24.856 171.058C24.6612 170.895 24.5035 170.693 24.3933 170.464C24.2598 170.234 24.1902 169.972 24.1916 169.705C24.191 169.393 24.292 169.09 24.4793 168.84C24.6666 168.591 24.93 168.409 25.2297 168.323C25.7826 168.076 26.3646 167.9 26.9619 167.801C27.6273 167.7 28.3001 167.656 28.9729 167.67ZM29.0797 178.586C29.5735 178.592 30.066 178.534 30.545 178.414C30.8787 178.332 31.2013 178.211 31.506 178.052V174.973L28.8187 175.234C28.2269 175.246 27.6484 175.412 27.1399 175.715C26.9457 175.843 26.7887 176.02 26.6846 176.229C26.5805 176.437 26.5329 176.669 26.5466 176.901C26.5376 177.14 26.5869 177.377 26.6903 177.592C26.7937 177.807 26.948 177.993 27.1399 178.135C27.7207 178.491 28.4013 178.649 29.0797 178.586Z" fill="white"/>
<path d="M44.4146 170.227C43.9162 170.216 43.4207 170.305 42.9571 170.488C42.4936 170.672 42.0714 170.946 41.7154 171.295C41.3275 171.704 41.0291 172.19 40.8391 172.721C40.6491 173.252 40.5718 173.817 40.6121 174.38C40.5712 174.929 40.6444 175.481 40.8271 176.001C41.0099 176.52 41.2982 176.997 41.6739 177.399C42.0362 177.742 42.4629 178.009 42.9293 178.185C43.3958 178.362 43.8926 178.443 44.3909 178.426C44.9611 178.44 45.5294 178.354 46.0697 178.171C46.4858 178.017 46.8836 177.818 47.2561 177.577C47.4905 177.735 47.6919 177.936 47.8493 178.171C47.9967 178.4 48.0711 178.669 48.0629 178.942C48.0444 179.266 47.9326 179.578 47.7411 179.84C47.5495 180.102 47.2864 180.303 46.9832 180.419C46.0898 180.845 45.1069 181.048 44.118 181.012C42.8918 181.039 41.6753 180.79 40.5587 180.283C39.5538 179.809 38.7236 179.03 38.1858 178.058C37.5928 176.926 37.3084 175.657 37.3612 174.38C37.3136 173.078 37.6278 171.788 38.2688 170.654C38.8393 169.684 39.6861 168.905 40.701 168.418C41.7348 167.919 42.8692 167.663 44.0171 167.67C45.0005 167.626 45.9782 167.841 46.8527 168.293C47.1538 168.421 47.4138 168.629 47.6042 168.895C47.7947 169.161 47.9082 169.474 47.9324 169.8C47.9348 170.059 47.8605 170.313 47.7188 170.53C47.5842 170.747 47.4041 170.934 47.1909 171.075C46.816 170.839 46.4186 170.64 46.0044 170.482C45.4932 170.306 44.9553 170.22 44.4146 170.227Z" fill="white"/>
<path d="M50.9102 175.181V163.316C51.0348 163.28 51.2305 163.233 51.5034 163.179C51.7928 163.125 52.0869 163.099 52.3814 163.102C52.8453 163.061 53.3094 163.178 53.6983 163.435C53.8514 163.583 53.9683 163.764 54.0403 163.965C54.1123 164.165 54.1374 164.38 54.1136 164.591V175.347L50.9102 175.181ZM54.1077 173.716V180.585C53.9147 180.651 53.7161 180.699 53.5144 180.728C53.2362 180.774 52.9542 180.796 52.6721 180.793C52.2072 180.83 51.7424 180.72 51.3433 180.478C51.1872 180.335 51.0672 180.156 50.993 179.957C50.9188 179.758 50.8925 179.545 50.9161 179.334V173.555L54.1077 173.716ZM53.3365 173.822L59.3755 167.854C59.9297 167.839 60.4748 167.997 60.9356 168.305C61.1174 168.423 61.2669 168.585 61.3704 168.776C61.474 168.966 61.5285 169.18 61.5288 169.397C61.5301 169.764 61.3996 170.12 61.1611 170.399C60.8075 170.786 60.4248 171.145 60.0161 171.473L55.5966 175.335L53.3365 173.822ZM55.8636 173.104L62.1221 178.96C62.1004 179.461 61.9173 179.942 61.6 180.33C61.4419 180.498 61.2489 180.629 61.0347 180.714C60.8205 180.799 60.5903 180.836 60.3602 180.823C59.9828 180.823 59.612 180.723 59.2865 180.532C58.8935 180.28 58.5447 179.966 58.2543 179.6L53.4077 174.297L55.8636 173.104Z" fill="white"/>
<path d="M70.6645 170.227C70.1661 170.216 69.6706 170.305 69.207 170.488C68.7435 170.672 68.3213 170.946 67.9654 171.295C67.5755 171.703 67.2753 172.189 67.0843 172.72C66.8932 173.251 66.8155 173.817 66.856 174.38C66.8163 174.93 66.8906 175.482 67.0744 176.001C67.2582 176.521 67.5474 176.997 67.9238 177.399C68.2861 177.742 68.7128 178.009 69.1793 178.185C69.6457 178.362 70.1425 178.443 70.6408 178.426C71.2091 178.44 71.7755 178.354 72.3137 178.171C72.7296 178.017 73.1274 177.818 73.5001 177.577C73.7362 177.733 73.938 177.935 74.0933 178.171C74.2407 178.4 74.3151 178.669 74.3069 178.942C74.2896 179.265 74.179 179.577 73.9884 179.839C73.7979 180.101 73.5356 180.303 73.2332 180.419C72.3395 180.844 71.3568 181.047 70.3679 181.012C69.1417 181.039 67.9253 180.79 66.8086 180.283C65.8055 179.806 64.976 179.028 64.4357 178.058C63.8391 176.926 63.5487 175.658 63.5933 174.38C63.5476 173.079 63.8595 171.79 64.495 170.654C65.0696 169.685 65.9178 168.907 66.9332 168.418C67.9741 167.915 69.117 167.659 70.273 167.67C71.2564 167.626 72.2341 167.841 73.1086 168.293C73.4096 168.421 73.6696 168.629 73.8601 168.895C74.0505 169.161 74.1641 169.474 74.1882 169.8C74.1907 170.059 74.1164 170.313 73.9747 170.53C73.8394 170.749 73.657 170.935 73.4408 171.075C73.0661 170.839 72.6687 170.64 72.2543 170.482C71.743 170.306 71.2052 170.22 70.6645 170.227Z" fill="white"/>
<path d="M77.1603 175.258V163.334C77.2849 163.298 77.4806 163.251 77.7535 163.197C78.0429 163.143 78.337 163.117 78.6315 163.12C79.0954 163.079 79.5595 163.196 79.9484 163.452C80.0993 163.602 80.2144 163.784 80.2853 163.984C80.3562 164.184 80.3809 164.398 80.3577 164.609V175.288L77.1603 175.258ZM80.3518 173.609V180.585C80.1592 180.652 79.9605 180.7 79.7586 180.728C79.4803 180.774 79.1984 180.796 78.9162 180.793C78.4512 180.83 77.9863 180.72 77.5874 180.478C77.4313 180.335 77.3114 180.156 77.2372 179.957C77.163 179.758 77.1366 179.544 77.1603 179.333V173.609H80.3518ZM85.5188 175.258V172.885C85.5513 172.516 85.5017 172.144 85.3735 171.796C85.2453 171.449 85.0417 171.133 84.7772 170.874C84.2496 170.448 83.5861 170.227 82.9086 170.251C82.3219 170.244 81.7409 170.366 81.206 170.607C80.7371 170.819 80.2983 171.092 79.901 171.42L79.6874 168.839C80.1875 168.528 80.7183 168.27 81.2713 168.068C81.966 167.811 82.702 167.685 83.4425 167.694C84.8308 167.623 86.1961 168.069 87.2747 168.946C88.2357 169.78 88.7162 171.04 88.7162 172.725V175.282L85.5188 175.258ZM88.7162 173.632V180.585C88.5247 180.656 88.3256 180.703 88.123 180.728C87.8407 180.774 87.5549 180.796 87.2688 180.793C86.7998 180.834 86.33 180.724 85.9281 180.478C85.7749 180.333 85.6577 180.154 85.5856 179.955C85.5136 179.756 85.4886 179.543 85.5128 179.333V173.632H88.7162Z" fill="white"/>
<path d="M96.9681 167.67C98.4206 167.595 99.8595 167.981 101.079 168.774C102.099 169.509 102.61 170.672 102.61 172.25V178.402C102.631 178.76 102.524 179.113 102.307 179.399C102.079 179.655 101.813 179.875 101.518 180.051C100.928 180.37 100.297 180.607 99.6436 180.757C98.8014 180.952 97.9392 181.045 97.0749 181.036C95.6195 181.114 94.1739 180.757 92.9224 180.01C92.4255 179.678 92.024 179.222 91.7576 178.687C91.4912 178.152 91.3692 177.557 91.4037 176.961C91.3738 176.451 91.4603 175.942 91.6566 175.471C91.853 175 92.1539 174.581 92.5368 174.243C93.4883 173.527 94.6335 173.114 95.8232 173.057L99.4715 172.683V172.203C99.4969 171.899 99.4411 171.594 99.3097 171.318C99.1784 171.043 98.9763 170.808 98.7241 170.637C98.0917 170.282 97.3715 170.116 96.6478 170.156C95.9647 170.155 95.2844 170.245 94.6249 170.423C94.0136 170.58 93.418 170.793 92.8452 171.058C92.6508 170.893 92.4915 170.692 92.3766 170.465C92.2475 170.232 92.1801 169.971 92.1808 169.705C92.1803 169.393 92.2812 169.09 92.4685 168.84C92.6559 168.591 92.9193 168.409 93.219 168.323C93.7697 168.076 94.3498 167.9 94.9453 167.801C95.6146 167.699 96.2913 167.656 96.9681 167.67ZM97.0749 178.586C97.5687 178.592 98.0612 178.534 98.5402 178.414C98.8717 178.331 99.1923 178.21 99.4953 178.052V174.973L96.808 175.234C96.2162 175.246 95.6377 175.412 95.1292 175.715C94.935 175.843 94.778 176.02 94.6739 176.229C94.5698 176.437 94.5222 176.669 94.5359 176.901C94.5274 177.14 94.5769 177.376 94.6803 177.591C94.7836 177.806 94.9377 177.993 95.1292 178.135C95.711 178.494 96.3945 178.653 97.0749 178.586Z" fill="white"/>
<path d="M105.831 164.295C105.825 164.054 105.87 163.815 105.962 163.592C106.054 163.369 106.191 163.168 106.364 163.001C106.54 162.831 106.749 162.698 106.977 162.609C107.205 162.521 107.449 162.479 107.693 162.485C107.943 162.473 108.193 162.513 108.426 162.602C108.66 162.69 108.873 162.827 109.052 163.001C109.309 163.261 109.482 163.591 109.549 163.95C109.616 164.309 109.573 164.68 109.427 165.015C109.281 165.349 109.037 165.632 108.728 165.826C108.419 166.02 108.058 166.117 107.693 166.104C107.447 166.112 107.202 166.069 106.973 165.977C106.744 165.885 106.537 165.746 106.364 165.57C106.192 165.406 106.056 165.208 105.964 164.988C105.872 164.769 105.827 164.533 105.831 164.295ZM106.097 175.264V168.145C106.24 168.109 106.447 168.068 106.691 168.026C106.973 167.978 107.259 167.954 107.545 167.955C108.011 167.918 108.476 168.03 108.874 168.275C109.034 168.425 109.156 168.611 109.23 168.817C109.304 169.024 109.328 169.244 109.301 169.462V175.264H106.097ZM109.319 173.615V180.591C109.126 180.657 108.927 180.705 108.725 180.734C108.439 180.781 108.149 180.803 107.859 180.799C107.398 180.832 106.939 180.722 106.542 180.484C106.383 180.342 106.261 180.164 106.184 179.965C106.108 179.766 106.08 179.551 106.103 179.339V173.609L109.319 173.615Z" fill="white"/>
<path d="M124.469 175.021H121.248V172.541C121.278 172.212 121.232 171.88 121.114 171.572C120.996 171.263 120.808 170.986 120.566 170.761C120.046 170.378 119.408 170.189 118.763 170.227C118.258 170.22 117.756 170.292 117.274 170.441C116.861 170.566 116.463 170.735 116.087 170.945V175.021H112.89V170.731C112.876 170.368 112.964 170.009 113.145 169.693C113.359 169.382 113.636 169.119 113.958 168.922C114.59 168.533 115.275 168.237 115.992 168.044C116.897 167.787 117.834 167.661 118.775 167.67C120.267 167.576 121.747 167.995 122.969 168.857C123.482 169.29 123.886 169.838 124.148 170.456C124.41 171.075 124.522 171.746 124.475 172.416L124.469 175.021ZM116.081 173.686V180.585C115.888 180.651 115.69 180.699 115.488 180.728C115.212 180.775 114.932 180.797 114.652 180.793C114.185 180.83 113.718 180.72 113.317 180.478C113.161 180.335 113.041 180.156 112.967 179.957C112.892 179.758 112.866 179.544 112.89 179.334V173.686H116.081ZM124.469 173.686V180.585C124.276 180.651 124.078 180.699 123.876 180.728C123.596 180.775 123.312 180.796 123.028 180.793C122.561 180.83 122.094 180.72 121.693 180.478C121.539 180.333 121.421 180.154 121.348 179.955C121.275 179.757 121.249 179.544 121.272 179.334V173.686H124.469Z" fill="white"/>
<path d="M93.8355 27.6945L79.1948 36.166L93.8296 44.6138L108.488 36.1541L93.8355 27.6945Z" fill="url(#paint0_linear_111_216)"/>
<path d="M31.1618 27.6945L16.5093 36.1541L31.1677 44.6138L45.8025 36.166L31.1618 27.6945Z" fill="url(#paint1_linear_111_216)"/>
<path d="M0.0712891 73.9615V108.31L29.9696 125.574V90.9936L0.0712891 73.9615Z" fill="url(#paint2_linear_111_216)"/>
<path d="M62.496 73.7302L32.5977 90.9936V127.087L62.496 144.35L92.3883 127.092V90.9936L62.496 73.7302Z" fill="url(#paint3_linear_111_216)"/>
<path d="M62.4604 36.1719L31.3579 18.1669L62.496 0.19165L93.6342 18.1729L62.5376 36.1719" fill="url(#paint4_linear_111_216)"/>
<path d="M124.914 73.6827L95.0161 90.9876V125.574L124.914 108.31V73.6827Z" fill="url(#paint5_linear_111_216)"/>
<path d="M62.4959 36.1719V70.6987L31.2806 88.7155L0.0712891 70.936V36.1719L0.124679 36.2015L31.2687 54.1828L31.2806 54.1887L62.4781 36.1837L62.4959 36.1719Z" fill="url(#paint6_linear_111_216)"/>
<path d="M124.915 36.1719V70.6453L93.7054 88.7155L62.4961 70.6987V36.1719L62.5198 36.1837L93.7054 54.1887L93.7232 54.1768L124.861 36.2015L124.915 36.1719Z" fill="url(#paint7_linear_111_216)"/>
<path d="M0.125044 36.2018L0.0712891 36.2318V36.1719L0.125044 36.2018Z" fill="url(#paint8_linear_111_216)"/>
<path d="M124.915 36.1719V36.2318L124.861 36.2018L124.915 36.1719Z" fill="url(#paint9_linear_111_216)"/>
<path d="M92.317 90.9935V127.033L62.4247 144.291L32.5264 127.033V90.9935L62.4247 108.251L92.317 90.9935Z" fill="url(#paint10_linear_111_216)"/>
<defs>
<linearGradient id="paint0_linear_111_216" x1="79.1948" y1="36.1541" x2="108.488" y2="36.1541" gradientUnits="userSpaceOnUse">
<stop stop-color="#00977B"/>
<stop offset="1" stop-color="#70FE87"/>
</linearGradient>
<linearGradient id="paint1_linear_111_216" x1="16.5093" y1="36.1541" x2="45.8025" y2="36.1541" gradientUnits="userSpaceOnUse">
<stop stop-color="#00977B"/>
<stop offset="1" stop-color="#70FE87"/>
</linearGradient>
<linearGradient id="paint2_linear_111_216" x1="0.0712891" y1="99.7677" x2="29.9696" y2="99.7677" gradientUnits="userSpaceOnUse">
<stop stop-color="#00977B"/>
<stop offset="1" stop-color="#70FE87"/>
</linearGradient>
<linearGradient id="paint3_linear_111_216" x1="32.5977" y1="109.04" x2="92.3883" y2="109.04" gradientUnits="userSpaceOnUse">
<stop stop-color="#00977B"/>
<stop offset="1" stop-color="#70FE87"/>
</linearGradient>
<linearGradient id="paint4_linear_111_216" x1="31.3579" y1="18.1818" x2="93.6342" y2="18.1818" gradientUnits="userSpaceOnUse">
<stop stop-color="#00977B"/>
<stop offset="1" stop-color="#70FE87"/>
</linearGradient>
<linearGradient id="paint5_linear_111_216" x1="95.0161" y1="99.6282" x2="124.914" y2="99.6282" gradientUnits="userSpaceOnUse">
<stop stop-color="#00977B"/>
<stop offset="1" stop-color="#70FE87"/>
</linearGradient>
<linearGradient id="paint6_linear_111_216" x1="0.0712891" y1="62.4466" x2="62.4959" y2="62.4466" gradientUnits="userSpaceOnUse">
<stop stop-color="#613BFF"/>
<stop offset="1" stop-color="#1DBAFF"/>
</linearGradient>
<linearGradient id="paint7_linear_111_216" x1="62.4961" y1="62.4466" x2="124.915" y2="62.4466" gradientUnits="userSpaceOnUse">
<stop stop-color="#613BFF"/>
<stop offset="1" stop-color="#1DBAFF"/>
</linearGradient>
<linearGradient id="paint8_linear_111_216" x1="0.0712891" y1="36.2018" x2="0.125044" y2="36.2018" gradientUnits="userSpaceOnUse">
<stop stop-color="#613BFF"/>
<stop offset="1" stop-color="#1DBAFF"/>
</linearGradient>
<linearGradient id="paint9_linear_111_216" x1="124.861" y1="36.2018" x2="124.915" y2="36.2018" gradientUnits="userSpaceOnUse">
<stop stop-color="#613BFF"/>
<stop offset="1" stop-color="#1DBAFF"/>
</linearGradient>
<linearGradient id="paint10_linear_111_216" x1="32.5264" y1="117.642" x2="92.317" y2="117.642" gradientUnits="userSpaceOnUse">
<stop stop-color="#613BFF"/>
<stop offset="1" stop-color="#1DBAFF"/>
</linearGradient>
</defs>
</svg>
