<svg width="1920" height="261" viewBox="0 0 1920 261" fill="none" xmlns="http://www.w3.org/2000/svg">
<g opacity="0.17">
<path d="M0 -151.333V222.359L25.4668 237L50.9336 222.359V-151.333L25.4668 -136.697L0 -151.333Z" fill="url(#paint0_linear_24_341)"/>
</g>
<g opacity="0.17">
<path d="M1415 -131.333V242.359L1439.97 257L1464.93 242.359V-131.333L1439.97 -116.697L1415 -131.333Z" fill="url(#paint1_linear_24_341)"/>
</g>
<g opacity="0.17">
<path d="M1768 -171.333V202.359L1793.47 217L1818.93 202.359V-171.333L1793.47 -156.697L1768 -171.333Z" fill="url(#paint2_linear_24_341)"/>
</g>
<g opacity="0.17">
<path d="M354 -131.333V242.359L378.967 257L403.935 242.359V-131.333L378.967 -116.697L354 -131.333Z" fill="url(#paint3_linear_24_341)"/>
</g>
<g opacity="0.17">
<path d="M707 -181.37V191.396L732.467 206L757.934 191.396V-181.37L732.467 -166.77L707 -181.37Z" fill="url(#paint4_linear_24_341)"/>
</g>
<g opacity="0.17">
<path d="M1061 -181.37V191.396L1086.47 206L1111.93 191.396V-181.37L1086.47 -166.77L1061 -181.37Z" fill="url(#paint5_linear_24_341)"/>
</g>
<g opacity="0.17">
<path d="M51 -220.333V153.359L75.9675 168L100.935 153.359V-220.333L75.9675 -205.697L51 -220.333Z" fill="url(#paint6_linear_24_341)"/>
</g>
<g opacity="0.17">
<path d="M1465 -220.333V153.359L1490.47 168L1515.93 153.359V-220.333L1490.47 -205.697L1465 -220.333Z" fill="url(#paint7_linear_24_341)"/>
</g>
<g opacity="0.17">
<path d="M1819 -220.333V153.359L1843.97 168L1868.93 153.359V-220.333L1843.97 -205.697L1819 -220.333Z" fill="url(#paint8_linear_24_341)"/>
</g>
<g opacity="0.17">
<path d="M404 -220.333V153.359L429.467 168L454.934 153.359V-220.333L429.467 -205.697L404 -220.333Z" fill="url(#paint9_linear_24_341)"/>
</g>
<g opacity="0.17">
<path d="M758 -159.333V214.359L782.967 229L807.935 214.359V-159.333L782.967 -144.697L758 -159.333Z" fill="url(#paint10_linear_24_341)"/>
</g>
<g opacity="0.17">
<path d="M1112 -169.333V204.359L1136.97 219L1161.93 204.359V-169.333L1136.97 -154.697L1112 -169.333Z" fill="url(#paint11_linear_24_341)"/>
</g>
<g opacity="0.17">
<path d="M101 -303.333V70.3593L126.467 85L151.934 70.3593V-303.333L126.467 -288.697L101 -303.333Z" fill="url(#paint12_linear_24_341)"/>
</g>
<g opacity="0.17">
<path d="M1516 -303.333V70.3593L1540.97 85L1565.93 70.3593V-303.333L1540.97 -288.697L1516 -303.333Z" fill="url(#paint13_linear_24_341)"/>
</g>
<g opacity="0.17">
<path d="M1869 -303.333V70.3593L1894.47 85L1919.93 70.3593V-303.333L1894.47 -288.697L1869 -303.333Z" fill="url(#paint14_linear_24_341)"/>
</g>
<g opacity="0.17">
<path d="M455 -303.333V70.3593L479.967 85L504.935 70.3593V-303.333L479.967 -288.697L455 -303.333Z" fill="url(#paint15_linear_24_341)"/>
</g>
<g opacity="0.17">
<path d="M808 -262.37V110.396L833.467 125L858.934 110.396V-262.37L833.467 -247.77L808 -262.37Z" fill="url(#paint16_linear_24_341)"/>
</g>
<g opacity="0.17">
<path d="M1162 -262.37V110.396L1187.47 125L1212.93 110.396V-262.37L1187.47 -247.77L1162 -262.37Z" fill="url(#paint17_linear_24_341)"/>
</g>
<g opacity="0.17">
<path d="M152 -332.333V41.3593L176.967 56L201.935 41.3593V-332.333L176.967 -317.697L152 -332.333Z" fill="url(#paint18_linear_24_341)"/>
</g>
<g opacity="0.17">
<path d="M1566 -332.333V41.3593L1591.47 56L1616.93 41.3593V-332.333L1591.47 -317.697L1566 -332.333Z" fill="url(#paint19_linear_24_341)"/>
</g>
<g opacity="0.17">
<path d="M505 -332.333V41.3593L530.467 56L555.934 41.3593V-332.333L530.467 -317.697L505 -332.333Z" fill="url(#paint20_linear_24_341)"/>
</g>
<g opacity="0.17">
<path d="M859 -332.333V41.3593L883.967 56L908.935 41.3593V-332.333L883.967 -317.697L859 -332.333Z" fill="url(#paint21_linear_24_341)"/>
</g>
<g opacity="0.17">
<path d="M1213 -332.333V41.3593L1237.97 56L1262.93 41.3593V-332.333L1237.97 -317.697L1213 -332.333Z" fill="url(#paint22_linear_24_341)"/>
</g>
<g opacity="0.17">
<path d="M202 -273.37V99.3957L227.467 114L252.934 99.3957V-273.37L227.467 -258.77L202 -273.37Z" fill="url(#paint23_linear_24_341)"/>
</g>
<g opacity="0.17">
<path d="M1617 -273.37V99.3957L1641.97 114L1666.93 99.3957V-273.37L1641.97 -258.77L1617 -273.37Z" fill="url(#paint24_linear_24_341)"/>
</g>
<g opacity="0.17">
<path d="M556 -273.37V99.3957L580.967 114L605.935 99.3957V-273.37L580.967 -258.77L556 -273.37Z" fill="url(#paint25_linear_24_341)"/>
</g>
<g opacity="0.17">
<path d="M909 -273.37V99.3957L934.467 114L959.934 99.3957V-273.37L934.467 -258.77L909 -273.37Z" fill="url(#paint26_linear_24_341)"/>
</g>
<g opacity="0.17">
<path d="M1263 -273.37V99.3957L1288.47 114L1313.93 99.3957V-273.37L1288.47 -258.77L1263 -273.37Z" fill="url(#paint27_linear_24_341)"/>
</g>
<g opacity="0.17">
<path d="M253 -203.333V170.359L277.967 185L302.935 170.359V-203.333L277.967 -188.697L253 -203.333Z" fill="url(#paint28_linear_24_341)"/>
</g>
<g opacity="0.17">
<path d="M1667 -203.333V170.359L1692.47 185L1717.93 170.359V-203.333L1692.47 -188.697L1667 -203.333Z" fill="url(#paint29_linear_24_341)"/>
</g>
<g opacity="0.17">
<path d="M606 -203.333V170.359L631.467 185L656.934 170.359V-203.333L631.467 -188.697L606 -203.333Z" fill="url(#paint30_linear_24_341)"/>
</g>
<g opacity="0.17">
<path d="M960 -203.333V170.359L985.467 185L1010.93 170.359V-203.333L985.467 -188.697L960 -203.333Z" fill="url(#paint31_linear_24_341)"/>
</g>
<g opacity="0.17">
<path d="M1314 -203.333V170.359L1338.97 185L1363.93 170.359V-203.333L1338.97 -188.697L1314 -203.333Z" fill="url(#paint32_linear_24_341)"/>
</g>
<g opacity="0.17">
<path d="M303 -332.333V41.3593L328.467 56L353.934 41.3593V-332.333L328.467 -317.697L303 -332.333Z" fill="url(#paint33_linear_24_341)"/>
</g>
<g opacity="0.17">
<path d="M1718 -332.333V41.3593L1742.97 56L1767.93 41.3593V-332.333L1742.97 -317.697L1718 -332.333Z" fill="url(#paint34_linear_24_341)"/>
</g>
<g opacity="0.17">
<path d="M657 -281.37V91.3957L681.967 106L706.935 91.3957V-281.37L681.967 -266.77L657 -281.37Z" fill="url(#paint35_linear_24_341)"/>
</g>
<g opacity="0.17">
<path d="M1011 -271.37V101.396L1035.97 116L1060.93 101.396V-271.37L1035.97 -256.77L1011 -271.37Z" fill="url(#paint36_linear_24_341)"/>
</g>
<g opacity="0.17">
<path d="M1364 -271.37V101.396L1389.47 116L1414.93 101.396V-271.37L1389.47 -256.77L1364 -271.37Z" fill="url(#paint37_linear_24_341)"/>
</g>
<defs>
<linearGradient id="paint0_linear_24_341" x1="0" y1="-128.871" x2="50.9385" y2="-128.871" gradientUnits="userSpaceOnUse">
<stop stop-color="#613BFF"/>
<stop offset="1" stop-color="#1DBAFF"/>
</linearGradient>
<linearGradient id="paint1_linear_24_341" x1="1415" y1="-108.871" x2="1464.94" y2="-108.871" gradientUnits="userSpaceOnUse">
<stop stop-color="#613BFF"/>
<stop offset="1" stop-color="#1DBAFF"/>
</linearGradient>
<linearGradient id="paint2_linear_24_341" x1="1768" y1="-148.871" x2="1818.94" y2="-148.871" gradientUnits="userSpaceOnUse">
<stop stop-color="#613BFF"/>
<stop offset="1" stop-color="#1DBAFF"/>
</linearGradient>
<linearGradient id="paint3_linear_24_341" x1="354" y1="-108.871" x2="403.94" y2="-108.871" gradientUnits="userSpaceOnUse">
<stop stop-color="#613BFF"/>
<stop offset="1" stop-color="#1DBAFF"/>
</linearGradient>
<linearGradient id="paint4_linear_24_341" x1="707" y1="-158.963" x2="757.938" y2="-158.963" gradientUnits="userSpaceOnUse">
<stop stop-color="#613BFF"/>
<stop offset="1" stop-color="#1DBAFF"/>
</linearGradient>
<linearGradient id="paint5_linear_24_341" x1="1061" y1="-158.963" x2="1111.94" y2="-158.963" gradientUnits="userSpaceOnUse">
<stop stop-color="#613BFF"/>
<stop offset="1" stop-color="#1DBAFF"/>
</linearGradient>
<linearGradient id="paint6_linear_24_341" x1="51" y1="-197.871" x2="100.94" y2="-197.871" gradientUnits="userSpaceOnUse">
<stop stop-color="#613BFF"/>
<stop offset="1" stop-color="#1DBAFF"/>
</linearGradient>
<linearGradient id="paint7_linear_24_341" x1="1465" y1="-197.871" x2="1515.94" y2="-197.871" gradientUnits="userSpaceOnUse">
<stop stop-color="#613BFF"/>
<stop offset="1" stop-color="#1DBAFF"/>
</linearGradient>
<linearGradient id="paint8_linear_24_341" x1="1819" y1="-197.871" x2="1868.94" y2="-197.871" gradientUnits="userSpaceOnUse">
<stop stop-color="#613BFF"/>
<stop offset="1" stop-color="#1DBAFF"/>
</linearGradient>
<linearGradient id="paint9_linear_24_341" x1="404" y1="-197.871" x2="454.938" y2="-197.871" gradientUnits="userSpaceOnUse">
<stop stop-color="#613BFF"/>
<stop offset="1" stop-color="#1DBAFF"/>
</linearGradient>
<linearGradient id="paint10_linear_24_341" x1="758" y1="-136.871" x2="807.94" y2="-136.871" gradientUnits="userSpaceOnUse">
<stop stop-color="#613BFF"/>
<stop offset="1" stop-color="#1DBAFF"/>
</linearGradient>
<linearGradient id="paint11_linear_24_341" x1="1112" y1="-146.871" x2="1161.94" y2="-146.871" gradientUnits="userSpaceOnUse">
<stop stop-color="#613BFF"/>
<stop offset="1" stop-color="#1DBAFF"/>
</linearGradient>
<linearGradient id="paint12_linear_24_341" x1="101" y1="-280.871" x2="151.938" y2="-280.871" gradientUnits="userSpaceOnUse">
<stop stop-color="#613BFF"/>
<stop offset="1" stop-color="#1DBAFF"/>
</linearGradient>
<linearGradient id="paint13_linear_24_341" x1="1516" y1="-280.871" x2="1565.94" y2="-280.871" gradientUnits="userSpaceOnUse">
<stop stop-color="#613BFF"/>
<stop offset="1" stop-color="#1DBAFF"/>
</linearGradient>
<linearGradient id="paint14_linear_24_341" x1="1869" y1="-280.871" x2="1919.94" y2="-280.871" gradientUnits="userSpaceOnUse">
<stop stop-color="#613BFF"/>
<stop offset="1" stop-color="#1DBAFF"/>
</linearGradient>
<linearGradient id="paint15_linear_24_341" x1="455" y1="-280.871" x2="504.94" y2="-280.871" gradientUnits="userSpaceOnUse">
<stop stop-color="#613BFF"/>
<stop offset="1" stop-color="#1DBAFF"/>
</linearGradient>
<linearGradient id="paint16_linear_24_341" x1="808" y1="-239.963" x2="858.938" y2="-239.963" gradientUnits="userSpaceOnUse">
<stop stop-color="#613BFF"/>
<stop offset="1" stop-color="#1DBAFF"/>
</linearGradient>
<linearGradient id="paint17_linear_24_341" x1="1162" y1="-239.963" x2="1212.94" y2="-239.963" gradientUnits="userSpaceOnUse">
<stop stop-color="#613BFF"/>
<stop offset="1" stop-color="#1DBAFF"/>
</linearGradient>
<linearGradient id="paint18_linear_24_341" x1="152" y1="-309.871" x2="201.94" y2="-309.871" gradientUnits="userSpaceOnUse">
<stop stop-color="#613BFF"/>
<stop offset="1" stop-color="#1DBAFF"/>
</linearGradient>
<linearGradient id="paint19_linear_24_341" x1="1566" y1="-309.871" x2="1616.94" y2="-309.871" gradientUnits="userSpaceOnUse">
<stop stop-color="#613BFF"/>
<stop offset="1" stop-color="#1DBAFF"/>
</linearGradient>
<linearGradient id="paint20_linear_24_341" x1="505" y1="-309.871" x2="555.938" y2="-309.871" gradientUnits="userSpaceOnUse">
<stop stop-color="#613BFF"/>
<stop offset="1" stop-color="#1DBAFF"/>
</linearGradient>
<linearGradient id="paint21_linear_24_341" x1="859" y1="-309.871" x2="908.94" y2="-309.871" gradientUnits="userSpaceOnUse">
<stop stop-color="#613BFF"/>
<stop offset="1" stop-color="#1DBAFF"/>
</linearGradient>
<linearGradient id="paint22_linear_24_341" x1="1213" y1="-309.871" x2="1262.94" y2="-309.871" gradientUnits="userSpaceOnUse">
<stop stop-color="#613BFF"/>
<stop offset="1" stop-color="#1DBAFF"/>
</linearGradient>
<linearGradient id="paint23_linear_24_341" x1="202" y1="-250.963" x2="252.938" y2="-250.963" gradientUnits="userSpaceOnUse">
<stop stop-color="#613BFF"/>
<stop offset="1" stop-color="#1DBAFF"/>
</linearGradient>
<linearGradient id="paint24_linear_24_341" x1="1617" y1="-250.963" x2="1666.94" y2="-250.963" gradientUnits="userSpaceOnUse">
<stop stop-color="#613BFF"/>
<stop offset="1" stop-color="#1DBAFF"/>
</linearGradient>
<linearGradient id="paint25_linear_24_341" x1="556" y1="-250.963" x2="605.94" y2="-250.963" gradientUnits="userSpaceOnUse">
<stop stop-color="#613BFF"/>
<stop offset="1" stop-color="#1DBAFF"/>
</linearGradient>
<linearGradient id="paint26_linear_24_341" x1="909" y1="-250.963" x2="959.938" y2="-250.963" gradientUnits="userSpaceOnUse">
<stop stop-color="#613BFF"/>
<stop offset="1" stop-color="#1DBAFF"/>
</linearGradient>
<linearGradient id="paint27_linear_24_341" x1="1263" y1="-250.963" x2="1313.94" y2="-250.963" gradientUnits="userSpaceOnUse">
<stop stop-color="#613BFF"/>
<stop offset="1" stop-color="#1DBAFF"/>
</linearGradient>
<linearGradient id="paint28_linear_24_341" x1="253" y1="-180.871" x2="302.94" y2="-180.871" gradientUnits="userSpaceOnUse">
<stop stop-color="#613BFF"/>
<stop offset="1" stop-color="#1DBAFF"/>
</linearGradient>
<linearGradient id="paint29_linear_24_341" x1="1667" y1="-180.871" x2="1717.94" y2="-180.871" gradientUnits="userSpaceOnUse">
<stop stop-color="#613BFF"/>
<stop offset="1" stop-color="#1DBAFF"/>
</linearGradient>
<linearGradient id="paint30_linear_24_341" x1="606" y1="-180.871" x2="656.938" y2="-180.871" gradientUnits="userSpaceOnUse">
<stop stop-color="#613BFF"/>
<stop offset="1" stop-color="#1DBAFF"/>
</linearGradient>
<linearGradient id="paint31_linear_24_341" x1="960" y1="-180.871" x2="1010.94" y2="-180.871" gradientUnits="userSpaceOnUse">
<stop stop-color="#613BFF"/>
<stop offset="1" stop-color="#1DBAFF"/>
</linearGradient>
<linearGradient id="paint32_linear_24_341" x1="1314" y1="-180.871" x2="1363.94" y2="-180.871" gradientUnits="userSpaceOnUse">
<stop stop-color="#613BFF"/>
<stop offset="1" stop-color="#1DBAFF"/>
</linearGradient>
<linearGradient id="paint33_linear_24_341" x1="303" y1="-309.871" x2="353.938" y2="-309.871" gradientUnits="userSpaceOnUse">
<stop stop-color="#613BFF"/>
<stop offset="1" stop-color="#1DBAFF"/>
</linearGradient>
<linearGradient id="paint34_linear_24_341" x1="1718" y1="-309.871" x2="1767.94" y2="-309.871" gradientUnits="userSpaceOnUse">
<stop stop-color="#613BFF"/>
<stop offset="1" stop-color="#1DBAFF"/>
</linearGradient>
<linearGradient id="paint35_linear_24_341" x1="657" y1="-258.963" x2="706.94" y2="-258.963" gradientUnits="userSpaceOnUse">
<stop stop-color="#613BFF"/>
<stop offset="1" stop-color="#1DBAFF"/>
</linearGradient>
<linearGradient id="paint36_linear_24_341" x1="1011" y1="-248.963" x2="1060.94" y2="-248.963" gradientUnits="userSpaceOnUse">
<stop stop-color="#613BFF"/>
<stop offset="1" stop-color="#1DBAFF"/>
</linearGradient>
<linearGradient id="paint37_linear_24_341" x1="1364" y1="-248.963" x2="1414.94" y2="-248.963" gradientUnits="userSpaceOnUse">
<stop stop-color="#613BFF"/>
<stop offset="1" stop-color="#1DBAFF"/>
</linearGradient>
</defs>
</svg>
